<?xml version="1.0" encoding="utf-8"?>
<!-- Generator: Adobe Illustrator 24.2.0, SVG Export Plug-In . SVG Version: 6.00 Build 0)  -->
<svg version="1.1" id="Capa_1" xmlns="http://www.w3.org/2000/svg" xmlns:xlink="http://www.w3.org/1999/xlink" x="0px" y="0px"
	 viewBox="0 0 66.8 64.5" style="enable-background:new 0 0 66.8 64.5;" xml:space="preserve">
<style type="text/css">
	.st0{fill:#BBBBBB;}
</style>
<g id="Capa_2_1_">
	<g id="Layer_2">
		<path class="st0" d="M56.7,41.2c0.3-0.1,0.5-0.3,0.8-0.5c-0.9-0.2-1.8-0.4-2.7-0.5c-0.7-0.1-1.4-0.1-1.9-0.1h-0.8
			c-0.3-0.2-0.5-0.3-0.8-0.4c-0.5-0.2-1-0.3-1-0.2s0.4,0.3,0.9,0.5c0.3,0.2,0.7,0.2,1,0.2c0.2,0.2,0.4,0.4,0.6,0.5
			c0.6,0.4,1.3,0.7,2,0.7C55.4,41.6,56.1,41.5,56.7,41.2z"/>
		<path class="st0" d="M56.9,31.8c-0.5-0.4-1.1-0.7-1.8-0.8c-0.3-0.1-0.6-0.1-0.9,0c0,0,0.2,0.2,0.5,0.6c0.4,0.5,0.8,0.9,1.3,1.3
			c0.5,0.4,1,0.7,1.5,1l0.7,0.4c0-0.3-0.1-0.6-0.3-0.8C57.8,32.8,57.4,32.2,56.9,31.8z"/>
		<path class="st0" d="M57.7,29.2c-0.6-0.6-1.3-0.9-2.1-1c-0.3,0-0.7,0-1,0c0,0,0.3,0.2,0.7,0.5s0.9,0.8,1.5,1.3c1.1,1,2.2,2,2.2,2
			c0-0.3-0.1-0.6-0.2-0.9C58.6,30.5,58.2,29.8,57.7,29.2z"/>
		<path class="st0" d="M10.1,16.6c0.2,0.9,0.6,1.7,1.3,2.4c0.6,0.6,1.4,1.1,2.3,1.3c0.4,0.1,0.7,0.1,1.1,0.1c0,0-0.4-0.3-0.8-0.7
			s-1.1-1-1.7-1.7s-1.2-1.3-1.6-1.7c-0.4-0.5-0.6-0.8-0.6-0.8C10,15.9,10.1,16.2,10.1,16.6z"/>
		<path class="st0" d="M16.5,19.5c0.4,0.1,0.9,0.2,1.3,0.1c-0.4-0.2-0.7-0.4-1-0.7c-0.7-0.6-1.3-1.3-1.9-2c-1.4-1.6-2.8-3-2.8-3
			c0.3,1.4,0.9,2.8,1.9,3.9C14.6,18.6,15.5,19.2,16.5,19.5z"/>
		<path class="st0" d="M16.2,13.5c1,0.6,2.2,1.1,3.3,1.4c-0.7-1-1.6-1.9-2.6-2.6c-1.1-0.6-2.2-1.1-3.4-1.3
			C14.2,12.1,15.1,12.9,16.2,13.5z"/>
		<path class="st0" d="M21.4,13.8c0.8,0.7,1.2,1.3,1.2,1.3c-0.1-0.6-0.4-1.1-0.7-1.7c-0.7-1.3-1.7-2.4-2.8-3.4c-1.1-1-2.5-1.7-3.9-2
			c-0.5-0.1-0.9,0-1.4,0.2c-0.1,0.1-0.3,0.2-0.4,0.3c0.5-0.1,1.1-0.1,1.6,0.2c1.2,0.6,2.3,1.4,3.3,2.4C19.6,12.1,20.7,13,21.4,13.8z
			"/>
		<path class="st0" d="M35.7,47.2l0.2,0.2c0.1,0.2,0.1,0.3,0.2,0.5c0.3,0.7,0.7,1.2,0.8,1.1s-0.2-0.6-0.5-1.3
			c0.4,0.3,0.8,0.5,0.8,0.4s-0.5-0.5-1.1-1.1c-0.2-0.4-0.3-0.6-0.4-0.6s0,0.1,0,0.3c-0.4-0.4-0.8-0.7-1.3-1
			C34.8,46.3,35.2,46.8,35.7,47.2z"/>
		<path class="st0" d="M44.5,37.7c-0.5-0.7-1-1.4-1.6-2.1c-0.5-0.7-1-1.4-1.7-2.1c0.3,0.8,0.8,1.6,1.4,2.3
			C43.1,36.5,43.7,37.2,44.5,37.7z"/>
		<path class="st0" d="M45.2,37.5c-0.5-0.8-1.1-1.6-1.7-2.4c-1-1.3-1.7-2.3-1.8-2.3c0.3,0.9,0.9,1.8,1.5,2.5
			C43.8,36.1,44.4,36.8,45.2,37.5z"/>
		<path class="st0" d="M44.8,36.4c0.2,0.3,0.3,0.5,0.5,0.7c0.5,0.5,0.8,0.9,0.9,0.9s-0.2-0.5-0.6-1c-0.3-0.4-0.6-0.9-1-1.3
			c-0.4-0.6-0.9-1.1-1.5-1.5c0.3,0.6,0.8,1.2,1.3,1.7L44.8,36.4z"/>
		<path class="st0" d="M48.9,37.7c-0.4-0.5-0.9-1.1-1.4-1.5c-0.4-0.5-0.9-1-1.4-1.5c0.3,0.6,0.7,1.2,1.2,1.7
			C47.7,36.9,48.3,37.4,48.9,37.7z"/>
		<path class="st0" d="M46.1,42.6c0.1-0.1-0.3-0.5-0.7-1s-0.8-0.9-0.9-0.9s0.2,0.6,0.7,1.1S46,42.6,46.1,42.6z"/>
		<path class="st0" d="M46.7,41c0.4,0.2,0.7,0.3,0.8,0.2s-0.2-0.3-0.6-0.5s-0.7-0.3-0.8-0.2S46.3,40.8,46.7,41z"/>
		<path class="st0" d="M47.2,41.8c0.5,0.3,1.1,0.5,1.7,0.6c-0.5-0.3-1-0.6-1.5-0.8c-0.5-0.3-1-0.6-1.5-0.8
			C46.2,41.2,46.7,41.6,47.2,41.8z"/>
		<path class="st0" d="M49,42.3c0.5,0.3,1,0.3,1,0.3s-0.4-0.3-0.9-0.5s-0.9-0.5-1-0.4S48.5,42.1,49,42.3z"/>
		<path class="st0" d="M50.9,40.3c-0.6,0-1-0.1-1,0s0.4,0.3,1,0.4s1.1,0,1.1-0.1S51.4,40.3,50.9,40.3z"/>
		<path class="st0" d="M53.5,42.7c0.5,0,0.8-0.3,0.8-0.4s-0.4,0-0.8,0s-0.8,0.1-0.8,0.2S53,42.8,53.5,42.7z"/>
		<path class="st0" d="M47.2,44.3c-0.4-0.3-0.6-0.6-0.7-0.5s0.3,0.8,1.2,1.2c0.5,0.3,1.1,0.5,1.6,0.4c0,0-0.1-0.1-0.4-0.2
			c0.4,0.1,0.9,0.1,1.3,0c0-0.1-0.8-0.1-1.7-0.3C48.1,44.7,47.7,44.5,47.2,44.3z"/>
		<path class="st0" d="M51.5,44.9c-0.3,0.2-0.4,0.4-0.3,0.5s0.3-0.1,0.5-0.2s0.4-0.2,0.4-0.3S51.9,44.7,51.5,44.9z"/>
		<path class="st0" d="M53.3,44.7c-0.3,0-0.5,0.1-0.5,0.2s0.2,0.2,0.5,0.2s0.5-0.1,0.5-0.2S53.6,44.7,53.3,44.7z"/>
		<path class="st0" d="M52.3,43.9c0.3-0.2,0.6-0.5,0.8-0.9c-0.3,0.2-0.7,0.3-1.1,0.3c-0.8,0.1-1.6,0-2.4-0.2
			c-0.8-0.2-1.6-0.5-2.4-0.8c-0.6-0.3-1-0.5-1-0.5c0.2,0.4,0.4,0.7,0.7,1c0.4,0.5,0.9,0.8,1.5,1.1c-0.8-0.2-1.6-0.5-2.3-0.9
			c-0.2-0.1-0.3-0.2-0.5-0.3l-0.4-0.3c-0.6-0.6-0.9-1.2-0.9-1.1s0,0.1,0.1,0.3c-0.2-0.2-0.3-0.3-0.3-0.3s0,0.6,0.6,1.1
			c0.1,0.1,0.3,0.2,0.4,0.3c0.3,0.3,0.6,0.5,0.9,0.7c0.7,0.4,1.4,0.6,2.2,0.7c0,0.1,0.4,0.3,0.9,0.5s1,0.3,1,0.2s-0.4-0.3-0.9-0.5
			c-0.2-0.1-0.4-0.1-0.6-0.2h0.1c0.3,0.1,0.6,0.3,0.9,0.3h0.2l0.2,0.1c0.7,0.4,1.2,0.8,1.3,0.7s-0.2-0.3-0.7-0.7
			c0.6,0,1.3-0.1,1.8-0.4c0.3,0.1,0.7,0.2,1,0.1c0.6,0,1-0.1,1-0.2s-0.5-0.2-1-0.2C52.9,43.8,52.6,43.8,52.3,43.9z"/>
		<path class="st0" d="M54.9,43c0-0.1-0.3-0.2-0.6-0.1c-0.2,0-0.3,0.1-0.4,0.2c-0.1,0.1-0.1,0.2-0.1,0.2s0.3,0,0.6,0
			S54.9,43.1,54.9,43z"/>
		<path class="st0" d="M52,41c-0.3,0-0.6,0.1-0.6,0.2s0.3,0.2,0.6,0.2s0.6-0.1,0.6-0.2S52.3,41,52,41z"/>
		<path class="st0" d="M56.2,41.9c-0.3,0-0.6,0.1-0.6,0.2s0.3,0.2,0.6,0.1s0.6-0.3,0.5-0.3S56.5,41.9,56.2,41.9z"/>
		<path class="st0" d="M55.6,43.4c-0.5,0.2-0.9,0.3-0.9,0.3s0.5,0.2,1,0s0.9-0.6,0.8-0.7S56.1,43.2,55.6,43.4z"/>
		<path class="st0" d="M57.3,42.7C57,42.8,56.8,43,56.8,43s0.3,0,0.6-0.1s0.6-0.3,0.5-0.4S57.7,42.6,57.3,42.7z"/>
		<path class="st0" d="M59.5,41.5c-0.1,0-0.1,0.1-0.1,0.2s0,0.2,0.1,0.2s0.1-0.1,0.1-0.2S59.5,41.5,59.5,41.5z"/>
		<path class="st0" d="M66.2,42.8c-0.1-0.2-0.2-0.2-0.3-0.3s0-0.1-0.1-0.1s0,0,0,0.1C65.5,42,65.3,41.5,65,41
			c-0.2-0.4-0.3-0.7-0.4-1.1c-0.2-0.8-0.4-1.6-0.6-2.4c-0.2-1.6-0.6-3.2-1.2-4.8c-0.6-1.4-1.4-2.7-2.5-3.7c-0.6-0.6-1.4-1.2-2.1-1.6
			h0.2c0.6,0.1,1.2,0.1,1.8,0.1c0.8,0,1.4,0,2,0h0.1c1,0.3,1.8,0.7,2.2,0.8c0.2,0.1,0.4,0.2,0.6,0.3s0.2,0.1,0.2,0s0,0,0,0l0,0l0,0
			h0.1c0.4,0.4,0.8,0.9,1.1,1.5c0.2,0.4,0.4,0.8,0.5,1.2c-0.1-0.4-0.2-0.9-0.4-1.3c-0.1-0.2-0.1-0.3-0.2-0.5l0,0c0,0-0.2-0.5-0.6-1
			c-0.3-0.4-0.5-0.7-0.8-1c0.1,0,0.1,0,0.1,0c-0.3-0.6-0.7-1.1-1.1-1.5c-0.3-0.5-0.7-1-1.2-1.5c0.2,0.6,0.5,1.2,0.9,1.7
			c0.2,0.2,0.3,0.4,0.5,0.6c-0.2-0.1-0.4-0.3-0.6-0.4c-0.2-0.5-0.5-0.9-0.8-1.2c-0.6-0.7-1.2-1.2-1.3-1.1s0.4,0.6,1,1.3
			c0.3,0.3,0.5,0.5,0.6,0.8c-0.2-0.1-0.3-0.2-0.5-0.3c-0.4-0.5-0.8-1-1.2-1.5c-0.4-0.5-0.8-1-1.3-1.5c0.2,0.6,0.6,1.2,1.1,1.7
			c0.3,0.4,0.6,0.7,1,1c-0.3-0.1-0.6-0.3-0.9-0.4s-0.4-0.6-0.7-1c-0.6-0.8-1.1-1.4-1.2-1.3c0.2,0.5,0.5,1.1,0.9,1.5l0.5,0.6L60,24.6
			c-0.2-0.2-0.3-0.4-0.5-0.6c-0.4-0.6-0.9-1.2-1.5-1.6c0.3,0.7,0.8,1.3,1.3,1.9l0.2,0.3l-0.3-0.1c-0.4-0.5-0.8-1-1.3-1.4
			c-0.4-0.5-0.9-0.9-1.5-1.3c0.3,0.6,0.8,1.1,1.3,1.5c0.4,0.4,0.8,0.8,1.3,1.2c-0.7-0.2-1.4-0.3-2.2-0.5c-0.2-0.2-0.8-0.7-1.4-1.3
			c-0.4-0.5-1-1-1.5-1.4c0.4,0.6,0.8,1.1,1.3,1.6c0.4,0.4,0.8,0.7,1.3,1l-1-0.1c-0.3-0.5-0.7-0.9-1.2-1.3c-0.4-0.5-0.9-0.9-1.4-1.2
			c0.3,0.5,0.7,1,1.1,1.4c0.4,0.4,0.8,0.7,1.2,1.1l-0.8-0.1c-0.2-0.2-0.6-0.6-1-1.1c-0.6-0.7-1.1-1.3-1.2-1.3c0.2,0.6,0.6,1.1,1,1.5
			c0.3,0.3,0.6,0.6,1,0.9h-0.6c-0.2-0.3-0.6-0.7-1-1.1c-0.5-0.6-1-1.1-1.5-1.5c0.3,0.6,0.7,1.2,1.2,1.7c0.3,0.3,0.6,0.6,0.9,0.9
			h-0.7l0,0c-0.2-0.2-0.6-0.5-0.9-0.9c-0.6-0.6-1.1-1.2-1.2-1.1c0.2,0.5,0.6,1,1,1.4c0.3,0.2,0.5,0.5,0.8,0.7h-0.4h-0.2
			c-0.3-0.4-0.6-0.7-1-1c-0.4-0.4-0.9-0.8-1.4-1c0,0.1,0.5,0.6,1.2,1.2c0.3,0.3,0.6,0.6,0.8,0.8c-0.3,0-0.7,0-1,0l-0.6-0.6
			c-0.6-0.6-1.1-1.2-1.2-1.1c0.2,0.5,0.6,1,1,1.4c0.1,0.1,0.3,0.3,0.4,0.4h-0.3l-0.3-0.3c-0.5-0.6-0.9-1-1-1s0.2,0.6,0.8,1.2
			l0.1,0.1h-0.4c-0.2-0.2-0.5-0.5-0.8-0.7c-0.4-0.5-0.8-0.9-1.3-1.3c0.2,0.6,0.6,1.1,1.1,1.5c0.2,0.2,0.4,0.4,0.6,0.5
			c-0.2,0-0.4,0-0.7,0.1c-0.2-0.2-0.5-0.5-0.7-0.8c-0.6-0.7-0.9-1.3-1-1.3c0.1,0.6,0.4,1.1,0.8,1.5c0.2,0.2,0.4,0.4,0.6,0.6h-0.4
			l-0.3,0c-0.2-0.4-0.5-0.7-0.9-1c-0.6-0.5-1.2-0.8-1.2-0.8s0.4,0.5,1,1c0.4,0.3,0.7,0.6,0.9,0.8l-0.8,0.1c-0.3-0.4-0.6-0.7-1-1.1
			c-0.4-0.4-0.8-0.8-1.3-1c-0.1,0.1,0.4,0.6,1,1.3c0.3,0.3,0.6,0.6,1,0.9c-0.3,0.1-0.6,0.1-0.9,0.2c-0.2-0.3-0.4-0.5-0.7-0.7
			c-0.6-0.6-1.1-1-1.2-0.9s0.4,0.6,0.9,1.2c0.2,0.2,0.4,0.4,0.6,0.6l-0.6,0.2c-0.2-0.2-0.4-0.5-0.7-0.8c-0.5-0.6-0.9-1.2-1-1.1
			c0.1,0.5,0.3,1,0.7,1.3c0.2,0.2,0.4,0.5,0.6,0.7l-0.5,0.1c-0.2-0.2-0.4-0.5-0.7-0.8l-0.7-0.8c0.2-0.2,0.3-0.3,0.3-0.4
			s-0.2,0.1-0.4,0.2c-0.2-0.1-0.3-0.2-0.3-0.2s0,0.1,0.1,0.3c-0.2,0.1-0.3,0.2-0.5,0.4c-0.3-0.3-0.5-0.5-0.5-0.5s0.1,0.3,0.3,0.7
			c-0.1,0.1-0.2,0.2-0.3,0.3l-0.2-0.3c0.1-0.1,0.2-0.2,0.2-0.2s-0.1,0-0.3,0.1c-0.2-0.2-0.4-0.4-0.4-0.4s0,0.2,0.2,0.5
			c-0.2,0.1-0.4,0.3-0.7,0.5l-0.1-0.1c0.2-0.2,0.3-0.3,0.3-0.4s-0.2,0.1-0.4,0.2c-0.2-0.3-0.3-0.4-0.3-0.4s0,0.2,0.1,0.6L38.2,24
			c-0.3-0.4-0.5-0.6-0.6-0.5s0.1,0.3,0.3,0.7l-0.1,0l-0.5-0.5c0.1-0.1,0.2-0.2,0.2-0.2s-0.1,0-0.2,0.1L38,23
			c0.7-0.4,1.4-0.8,2.2-1.1c1.9-0.7,3.8-1.2,5.8-1.5c1.1-0.2,2.3-0.4,3.5-0.5c0.6-0.1,1.2-0.1,1.8-0.1s1.3,0.1,1.9,0.1
			c5,0.6,9.4,2.8,11.5,5.4c0.9,1,1.5,2.2,1.8,3.5c0.1,0.5,0.2,1,0.3,1.5c0-0.5,0-1-0.1-1.5c-0.2-1.4-0.7-2.7-1.5-3.9
			c-1.2-1.7-2.8-3.1-4.7-4c-2.2-1.2-4.7-1.9-7.2-2.2c-0.7-0.1-1.3-0.1-2-0.1c-0.7,0-1.3,0.1-2,0.2c-1.2,0.2-2.4,0.4-3.5,0.7
			c-2,0.5-3.9,1.1-5.8,2c-0.9,0.4-1.7,0.9-2.4,1.5c0.2-0.6,0.4-1.3,0.6-1.9c0.3-1.4-0.5-7-4.1-11.5c-0.4-0.4-0.8-0.7-1.2-0.9
			c-0.4-0.5-0.8-0.9-1.2-1.4c-1.1-1.1-2.2-2.2-3.3-3.2l-0.9-0.8l-0.6-0.5l-0.9-0.7c-0.5-0.4-2.8-2-2.9-1.5C22.8,0.1,22.6,0,22.6,0
			c0.2,0.4,0.5,0.8,0.7,1.2c0,0.2,0,0.4,0,0.7c0,0.9,0,2.2,0.1,3.5s0.2,2.5,0.2,3.4v0.1c-0.1-0.1-0.1-0.1-0.1-0.1s0,0.1,0.1,0.2v0.6
			c-0.7-0.5-1.3-1.1-2-1.5c-0.6-0.4-1.3-0.8-2-1.1c-0.4-0.2-0.7-0.3-1.1-0.5c-0.4-0.2-0.8-0.3-1.2-0.4c-1.6-0.4-3.3-0.4-5-0.1
			C11,6.2,9.8,6.5,8.6,6.6C8,6.6,7.4,6.6,6.9,6.6H6.7H6.4c-0.3,0-0.6-0.1-0.9-0.2L3.6,5.7l1,1.5c0.3,0.4,0.6,0.8,0.8,1.3
			C5.6,9,5.9,9.5,6.1,10c0.4,1,0.7,2,1,2.9c0.4,1.2,0.7,2.3,1.1,3.3H7.7c-0.6-0.1-1.2-0.3-1.8-0.6c-0.5-0.3-1-0.6-1.5-1
			c-0.3-0.6-0.6-1.2-0.7-1.9c-0.1-0.4-0.2-0.7-0.2-0.9c0-0.2,0.1-0.4,0.1-0.6c-0.2,0.3-0.3,0.7-0.3,1C3.1,13.1,3,14.1,3,15
			c0.1,3.1,0.7,6.3,2,9.1c0.7,1.6,1.6,3.1,2.8,4.4c0.9,1.1,2.2,2,3.6,2.5c0.5,0.2,1.1,0.2,1.6,0.1c-1.8,1.1-3.3,2.5-4.7,4.1
			l-0.2,0.3L8,35.6l-0.2,0.2c-0.3,0.4-0.5,0.7-0.7,1.1c-0.3,0.6-0.6,1.2-0.8,1.8l-0.3,0.8L5.9,40v0.1l0,0l0,0l0,0
			c0.1,0,0.2-0.1,0,0.6c0.8-1,1.7-1.9,2.6-2.8c0.2-0.2,0.5-0.4,0.7-0.5l0.3-0.2l0.2-0.1c0.2-0.1,0.4-0.2,0.7-0.3
			c-0.3,0.3-0.6,0.7-0.9,1.1c-1.4,2.2-2.6,4.6-3.6,7.1l-1.8,4.2c-0.3,0.7-0.7,1.5-1,2.2c-0.2,0.4-0.4,0.7-0.6,1
			c-0.2,0.3-0.4,0.6-0.7,0.9L0,54.7h1.1l1.5-0.1c0.2,0,0.4,0,0.6,0h0.2h0.1h0.1c0.4,0.1,0.8,0.2,1.1,0.4c0.7,0.3,1.5,0.6,2.2,1
			L8,56.6l-0.3,0.5C7.6,57,7.5,57,7.5,57s0,0.1,0.2,0.3l-0.1,0.1c-0.2-0.2-0.3-0.2-0.3-0.2s0.1,0.2,0.2,0.4L7.3,58l-0.9,1.9
			l-0.4,0.9c-0.2,0.3-0.3,0.7-0.5,1.1l-0.7,1.3l-0.6,1.3c0.8-0.6,1.8-1.6,2.7-2.3c0.4-0.3,0.8-0.5,1.2-0.8c0.2-0.1,0.4-0.2,0.6-0.3
			c2.1-1,4.2-1.8,5.6-2.7c0.5,0,1,0,1.5-0.1c0.8-0.1,1.5-0.3,2.2-0.5c-1.9,0.9-3,1.3-3,1.3c1.4-0.3,2.8-0.7,4.2-1.2
			c3.1-1.2,6.1-2.8,8.7-4.8c0.6,0.5,1.2,0.9,1.9,1.3c0.1,0.2,0.3,0.5,0.4,0.7l0.1,0.1l-0.7-0.6c-1-0.8-1.7-1.4-1.8-1.4
			s0.4,0.7,1.2,1.3c0.1,0.4,0.3,0.8,0.5,1.2c0.1,0.2,0.3,0.3,0.5,0.5l-0.2,0.1l-0.3-0.2l-0.1-0.2c-0.5-0.6-0.9-1.1-0.9-1
			s0.1,0.3,0.3,0.6l-0.1-0.1c-0.6-0.5-1.3-1-2-1.4c0.5,0.6,1.1,1.1,1.8,1.6c0.1,0.2,0.3,0.5,0.4,0.7c0.1,0.1,0.2,0.2,0.3,0.3
			c-0.1,0.1-0.2,0.2-0.4,0.2c-0.1-0.2-0.3-0.3-0.5-0.5c-0.5-0.6-0.9-1.1-1-1s0.2,0.7,0.7,1.3c0.1,0.1,0.1,0.2,0.2,0.2l-0.5-0.4
			c-0.5-0.4-1-0.8-1.5-1.1c0,0,0.3,0.5,0.9,1c0.1,0.2,0.2,0.4,0.4,0.5c0.1,0.2,0.3,0.3,0.5,0.5l-0.1,0.1l-0.2-0.1l-0.5-0.5
			c-0.4-0.5-0.7-0.9-0.8-0.9s0,0.4,0.3,0.7l0,0L26,56.4c-0.3-0.4-0.5-0.6-0.6-0.6s0,0.1,0,0.2c-0.3-0.2-0.5-0.4-0.5-0.4
			s0.3,0.5,0.9,1c0.1,0.2,0.3,0.4,0.4,0.6c0.2,0.2,0.4,0.5,0.7,0.7l-0.1,0l-0.7-0.7c-0.5-0.5-0.9-1-1-0.9s0.2,0.6,0.8,1.1
			c0.2,0.2,0.4,0.4,0.7,0.6L26.4,58l-0.8-0.5l-0.3-0.2c-0.5-0.5-0.9-0.9-0.9-0.8s0,0.1,0.1,0.3h0c0,0,0.2,0.4,0.6,0.7l0.1,0.2
			c0.2,0.2,0.4,0.4,0.7,0.6l-0.3,0.1c-0.2-0.2-0.4-0.5-0.6-0.7c-0.6-0.6-1.1-1.1-1.1-1.1s0.3,0.7,0.9,1.3c0.2,0.2,0.4,0.4,0.6,0.6
			L25,58.5c-0.1-0.2-0.3-0.4-0.5-0.5c-0.4-0.3-0.7-0.5-0.8-0.5s0.2,0.4,0.6,0.7c0.2,0.1,0.4,0.3,0.5,0.4l-0.2,0.1l-0.4-0.3l-0.4-0.3
			l0,0c-0.5-0.5-0.9-0.8-1-0.7s0.3,0.5,0.8,1c0.1,0.1,0.3,0.2,0.5,0.3l0,0l0.2,0.1L24,58.9c-0.2-0.2-0.4-0.4-0.7-0.5
			c-0.6-0.4-1.1-0.6-1.2-0.5s0.4,0.4,1,0.8l0.5,0.3h0c-0.1-0.1-0.2-0.2-0.4-0.3c-0.5-0.3-1.1-0.4-1.1-0.3s0.4,0.3,0.9,0.6l0.1,0.1
			h-0.1l-0.7-0.5c-0.7-0.5-1.2-1-1.3-1s0.3,0.7,1.1,1.2c0.2,0.1,0.3,0.2,0.5,0.3h-0.2C22.3,59.1,22.2,59,22,59
			c-0.2-0.1-0.5-0.1-0.7,0L21,58.8c-0.6-0.4-1.1-0.6-1.1-0.6s0.4,0.5,1,0.8l0.2,0.1C21,59.3,21,59.3,21,59.3s0.1,0,0.2,0l0.3,0.2
			L21,59.5L20.2,59c-0.6-0.4-1.1-0.7-1.2-0.6s0.4,0.5,1,0.9c0.1,0.1,0.3,0.2,0.5,0.3l-0.6,0l0,0c-0.1-0.2-0.3-0.3-0.5-0.4
			c-0.4-0.2-0.7-0.3-0.7-0.3s0.2,0.3,0.5,0.5l0.3,0.2h-0.4c-0.2-0.1-0.3-0.2-0.5-0.3c-0.5-0.3-0.9-0.5-1-0.4s0.3,0.4,0.8,0.7
			l0.1,0.1H18c-0.2-0.1-0.3-0.2-0.5-0.3c-0.4-0.2-0.8-0.3-0.8-0.2s0.3,0.3,0.6,0.5h0h-0.1c0-0.1-0.2-0.2-0.5-0.4S16.1,59,16,59.1
			s0.2,0.3,0.5,0.4c-0.8-0.1-1.3-0.2-1.3-0.2c1.5,0.6,3,0.9,4.6,0.9c1.7,0.1,3.5-0.1,5.2-0.5c2.1-0.5,4-1.4,5.8-2.5
			c1.8-1.1,3.4-2.6,4.7-4.3c1.6-2,2.7-4.4,3.2-7c1.1,1.8,2.6,3.4,4.3,4.7c0.1,0.3,0.3,0.5,0.5,0.7c0,0,0-0.2-0.2-0.5l0.4,0.3
			l0.3,0.2c0.2,0.3,0.3,0.5,0.4,0.5s0-0.1-0.1-0.3c3,1.9,6.3,3,8.7,2.7c0.7-0.1,1.5-0.3,2.1-0.7l0,0c0-0.2,0-0.3,0-0.4
			c-0.4-0.1-0.8-0.2-1.1-0.3c-0.6-0.2-1.2-0.5-1.8-0.8c-0.1-0.2-0.3-0.4-0.5-0.7c-0.5-0.7-1.1-1.6-1.9-2.6s-1.3-1.6-1.8-2.2
			c0-0.2-0.1-0.5-0.1-0.6c1.1,0.5,2.4,0.8,3.6,0.9c0.9,0,1.9-0.1,2.7-0.4c0.3,0.2,0.7,0.4,1,0.6c0.4,0.3,0.9,0.5,1.4,0.5
			c0.2,0.1,0.5,0.2,0.8,0.3c0.6,0.2,1.2,0.4,1.7,0.5l0.4,0.2c1,0.7,2.2,1.2,3.4,1.5c0.7,0.1,1.3,0.3,2,0.3c0-0.5,0-1,0-1.6
			c0-0.3-0.1-0.6-0.2-0.9c-0.2-0.5-0.4-1-0.6-1.5c-0.3-0.8-0.7-1.5-1.2-2.3c-0.3-0.6-0.6-1-0.8-1.3l0.5-0.1c0.4-0.1,0.8-0.1,1.2-0.1
			c0.2,0,0.4,0,0.6,0c0.3,0.1,0.6,0.2,0.9,0.3c0.3,0.1,0.5,0.1,0.8,0.2l0.3,0h0.1c0,0,0,0,0-0.1v-0.1l0,0h0.2L66.2,43
			C66.2,43,66.2,42.9,66.2,42.8z M62.4,27h0.1l0.2,0.2c0.1,0.1,0.2,0.2,0.3,0.3h0c0,0-0.2-0.1-0.5-0.2l-0.4-0.1l-0.3-0.1L62.4,27z
			 M61.1,27.1L61.1,27.1z M60.6,25.9L60.6,25.9l-0.2-0.1l0,0L60.6,25.9z M21.8,59.4l-0.2-0.1c0.1,0,0.2,0,0.3,0.1H22
			C21.9,59.4,21.9,59.4,21.8,59.4z M26.1,58.2L26.1,58.2L26.1,58.2z M27.2,57.8l-0.4-0.5c0.2,0.1,0.4,0.2,0.6,0.3l0.1,0.1L27.2,57.8
			z M28,57.3l-0.2-0.3l0.3,0.2L28,57.3z M29.3,56.6L29,56.3l0.2,0.1L29.3,56.6L29.3,56.6z M58.5,26.6L58.5,26.6
			c-0.2-0.2-0.4-0.5-0.7-0.9l0.3,0.1c0,0.1,0.1,0.2,0.2,0.3l0.1,0.2L58.5,26.6L58.5,26.6z M59,26.1l0.2,0.2L59,26.3
			c0-0.1,0-0.1-0.1-0.1s0,0.1-0.1,0.1s-0.1-0.1-0.1-0.1L58.5,26v0L59,26.1z M58.3,25.7L58.3,25.7l0.3,0.1L58.3,25.7z M58.3,25.3
			L58.3,25.3L58.3,25.3L58,25.3v0L58.3,25.3z M58,25.6l-0.4-0.1c-0.1-0.1-0.1-0.2-0.2-0.2L58,25.6C57.9,25.5,58,25.6,58,25.6
			L58,25.6z M57.9,25.2L57.9,25.2c-0.2,0-0.4-0.1-0.6-0.1l-0.1-0.1L57.9,25.2z M56.3,25c0.1,0.2,0.3,0.4,0.4,0.6
			c0.5,0.6,0.9,1.1,1,1.1c-0.1-0.5-0.4-0.9-0.7-1.2c-0.1-0.1-0.2-0.3-0.3-0.4h0.1c0.2,0.3,0.4,0.5,0.6,0.8c0.3,0.3,0.6,0.6,0.9,0.9
			L58.1,27l0,0c-0.5-0.1-0.8-0.3-0.8-0.2s0.1,0.1,0.3,0.3l-0.3-0.2c-0.2-0.3-0.5-0.6-0.9-1.1c0,0,0.1,0,0.1,0s-0.1-0.1-0.3-0.2
			s-0.3-0.4-0.5-0.6C55.9,25,56.2,25,56.3,25z M58,27.2L58,27.2l-0.2-0.1L58,27.2z M55.5,24.9L55.5,24.9L55.5,24.9L55.5,24.9z
			 M55.6,25.5c0.3,0.2,0.5,0.5,0.8,0.7l0.4,0.4c-0.4-0.2-0.8-0.3-1.1-0.4c-0.2-0.3-0.4-0.6-0.7-0.9L55.6,25.5z M54.9,24.9L54.9,24.9
			l-0.1,0L54.9,24.9z M54.3,25L54.3,25c0,0-0.1,0-0.1-0.1C54.2,25,54.2,25,54.3,25L54.3,25z M52.9,24.8l0.4,0.2l0.3,0.1l0.1,0.1
			c0.4,0.5,0.8,0.8,0.8,0.7s-0.1-0.3-0.3-0.5l0.5,0.2c0.2,0.2,0.4,0.4,0.6,0.6c-0.6-0.2-1.2-0.3-1.7-0.4c-0.2-0.2-0.3-0.4-0.5-0.5
			c-0.2-0.1-0.3-0.3-0.4-0.4L52.9,24.8z M53,25.5l-0.2-0.1c0,0,0-0.1-0.1-0.2l0.1,0.1L53,25.5z M52,24.7L52,24.7l0.5,0.5l-0.2-0.1
			l-0.4-0.3c0,0,0.1,0,0.1,0S52,24.8,52,24.7L52,24.7z M50,24.6l1,0.1l0.2,0.1l0.1,0.1c-0.4-0.1-0.7-0.2-0.7-0.1s0,0,0.1,0.1
			L50,24.6l-0.1,0L50,24.6z M48.7,24.6C48.7,24.6,48.6,24.7,48.7,24.6c-0.1,0.1,0.3,0.1,0.7,0.2l0.5,0.2c0.3,0.1,0.6,0.2,0.6,0.2
			s0,0,0,0h0.1c0.5,0.1,0.9,0.2,1.2,0.2h0.1l0,0h-0.2l-1.2-0.2l-0.3-0.1c-0.9-0.3-1.7-0.5-2.1-0.5H48.7z M47.7,24.6l0.3,0.1
			l-0.7-0.1L47.7,24.6z M41.2,23.1c0.2,0.3,0.4,0.5,0.6,0.8c0.2,0.2,0.5,0.5,0.7,0.7c-0.3,0.1-0.5,0.2-0.7,0.3l-0.5-0.6
			c0.1-0.1,0.1-0.2,0.1-0.3s-0.1,0-0.2,0.1l0,0c-0.1-0.2-0.3-0.3-0.4-0.5L41.2,23.1z M41.6,25l-0.5,0.2l-0.3-0.5l0.1,0l0.2-0.2
			C41.3,24.6,41.4,24.8,41.6,25z M40.6,23.8c0.1,0.2,0.2,0.3,0.4,0.5l-0.2,0.1l-0.1,0.1l-0.1-0.1L40.3,24L40.6,23.8z M40.1,24.3
			c0.1,0.1,0.1,0.2,0.2,0.3l0.1,0.1c-0.2,0.1-0.3,0.2-0.3,0.3s0.2,0,0.5-0.1l0.3,0.4l-0.7,0.2c-0.2-0.2-0.4-0.5-0.6-0.7l-0.1-0.1
			L40.1,24.3z M39.8,25.5h-0.4l-0.3-0.4l0.2-0.1v0.1C39.5,25.2,39.6,25.3,39.8,25.5L39.8,25.5z M39.7,23.7l0.2,0.3l-0.5,0.5
			l-0.2-0.3C39.3,24,39.5,23.8,39.7,23.7L39.7,23.7z M38.9,24.4c0.1,0.1,0.2,0.2,0.2,0.3L39,24.9l-0.1-0.1c-0.1-0.1-0.1-0.2-0.2-0.3
			L38.9,24.4z M39,25.4L39,25.4l-0.1-0.2l0,0C38.9,25.3,39,25.4,39,25.4L39,25.4z M38.7,24L38.7,24l-0.2,0.3l0-0.1L38.7,24z
			 M38.5,24.7l0.2,0.3l0.1,0.2l0,0C38.7,25,38.6,24.9,38.5,24.7L38.5,24.7z M38.2,24.4L38.2,24.4L38.2,24.4
			C38.2,24.4,38.2,24.4,38.2,24.4C38.1,24.3,38.2,24.4,38.2,24.4L38.2,24.4z M38.2,24.9l0.4,0.5h-0.3L38,25.1L38.2,24.9z M39.9,26.6
			c2.2,0.6,4.2,1.5,6,2.8l0.8,0.5c0.3,0.2,0.5,0.3,0.8,0.5c0.5,0.3,1,0.6,1.6,0.8l3,1.5c1.7,0.8,3.3,1.7,4.9,2.7
			c0.6,0.4,1.2,0.8,1.7,1.3c0.3,0.3,0.5,0.6,0.6,1c0,0-0.1,0-0.1,0c-0.1,0,0,0.2,0.2,0.3l0,0v0.1L59,38c-0.2-0.1-0.3-0.2-0.4-0.3
			s0,0,0,0c0-0.1,0-0.1-0.1-0.1c0.1,0.1,0.2,0.1,0.3,0.1c0.1,0,0.1-0.1,0.1-0.1s0,0-0.1,0c-0.1,0-0.1-0.1-0.2-0.1l-0.1-0.1
			c-0.1-0.1-0.2-0.1-0.3-0.1c-0.1,0-0.2,0.1-0.2,0.3c0,0,0,0.1,0,0.2c0,0-0.1,0-0.1,0s0,0,0,0c-0.1,0-0.2-0.1-0.3-0.1L57.3,37
			c-0.3-0.4-0.7-0.7-1.2-1c-0.1,0.1,0.3,0.7,0.9,1.2c0.4,0.3,0.7,0.6,1.2,0.9h0l0,0l0.4,0.4h-0.1c-0.2-0.1-0.3-0.1-0.5-0.1
			c-0.1-0.1-0.3-0.2-0.5-0.3c-0.7-0.6-1.2-1.3-1.3-1.2s0.1,0.3,0.4,0.8l-0.3-0.2c-0.5-0.5-1-0.9-1.1-0.8s0.1,0.3,0.4,0.6
			c0,0,0.1,0.2,0.3,0.3l0.3,0.3c0.3,0.3,0.6,0.6,0.8,0.8l0.1,0L57,38.5c-0.3-0.3-0.6-0.6-0.9-0.9c-0.6-0.5-1.1-0.9-1.1-0.8
			s0,0.2,0.2,0.3c-0.3-0.2-0.6-0.4-1-0.5c-0.2-0.2-0.3-0.3-0.3-0.3s0.5,0.8,1.3,1.6l0.4,0.3l-0.3-0.1c-0.3-0.3-0.7-0.8-1.3-1.3
			c-0.5-0.5-1-1-1.5-1.5c0.3,0.7,0.8,1.2,1.3,1.7l0.4,0.4c-0.3-0.2-0.6-0.4-0.9-0.5L53,36.8c-0.3-0.3-0.5-0.6-0.6-0.5s0,0.1,0.1,0.3
			c-0.3-0.1-0.5-0.2-0.5-0.2c-0.5-0.5-1.1-0.9-1.7-1.3c0.3,0.4,0.6,0.7,1,1c-0.4-0.3-0.7-0.5-0.7-0.5s0.4,0.7,1.2,1.2
			c0.3,0.2,0.5,0.4,0.8,0.5l0.4,0.4c-0.3,0-0.6-0.1-0.9-0.1c-0.3-0.4-0.7-0.7-1.1-1c-0.5-0.5-1-0.9-1.6-1.3c0.4,0.6,0.9,1.1,1.4,1.5
			c0.3,0.3,0.7,0.6,0.9,0.8c-0.2,0-0.5,0-0.8,0c-0.3-0.3-0.6-0.7-0.9-1c-0.4-0.5-1-0.9-1.5-1.1c0.4,0.5,0.8,1,1.3,1.5
			c0.3,0.3,0.6,0.6,0.8,0.8l-0.5,0.1c-0.4-0.3-0.8-0.7-1.3-1.2c-1.2-1.2-2.2-2.2-2.2-2.2c0.5,0.9,1.2,1.7,2,2.4
			c0.4,0.4,0.8,0.7,1.2,1h-0.1c-1.6,0.4-3.2,1.1-4.9,1.5c-0.7,0.1-1.5,0.1-2.2,0c-0.3-0.5-0.6-1-1-1.4c-0.4-0.5-0.8-1-1.4-1.4
			c0.3,0.6,0.7,1.1,1.1,1.6c0.3,0.4,0.6,0.8,1,1.2l-0.5-0.1c-0.1-0.2-0.4-0.5-0.8-0.9c-0.1-0.3-0.3-0.6-0.4-0.9
			c-0.3-0.6-0.8-1.3-1.3-2.2c-0.4-0.7-0.8-1.4-1.2-2.2c-0.1-0.3-0.3-0.7-0.5-1c0,0.3,0.1,0.7,0.3,1c0.3,0.8,0.7,1.6,1.2,2.3
			c0.5,0.8,1,1.6,1.4,2.1l0.3,0.5l-0.1-0.1c-0.4-0.5-0.8-1-1.3-1.5c-0.2-0.4-0.5-0.8-0.8-1.2c-1.2-1.9-1.9-3.6-2-3.6
			c0.4,1.3,0.9,2.6,1.7,3.7c0.5,0.9,1.1,1.7,1.7,2.4l-0.2-0.2c-0.5-0.5-1-1-1.5-1.5c0.3,0.7,0.7,1.3,1.3,1.8c0.4,0.4,0.7,0.7,1,0.9
			c-0.1-0.1-0.3-0.1-0.4-0.2c-0.3-0.2-0.5-0.3-0.8-0.5l-0.2-0.3c0.3,0.3,0.5,0.4,0.5,0.4c-0.3-0.6-0.7-1.1-1.3-1.5l-0.2-0.1
			c-0.4-0.6-0.8-1.4-1.2-2.2C35.8,32,35.2,30,35.2,30c0.2,1.4,0.7,2.7,1.3,4c-0.1-0.1-0.1-0.2-0.2-0.3c-0.5-0.8-0.9-1.7-1.3-2.6
			l-0.3-0.7c0-0.2,0-0.3,0.1-0.5c0.1-0.7,0.3-1.4,0.6-2c0.4-0.7,1-1.2,1.8-1.5C38.1,26.3,39,26.3,39.9,26.6L39.9,26.6z M59,38.4
			L59,38.4c-0.1,0-0.1,0-0.1-0.1C58.9,38.3,58.9,38.4,59,38.4z M58.6,37.5C58.6,37.5,58.6,37.5,58.6,37.5h-0.1v-0.1l0,0L58.6,37.5z
			 M56.7,38.5l-0.6-0.1c-0.2-0.2-0.5-0.4-0.8-0.7l-0.2-0.2l0.2,0.1c0.4,0.3,0.7,0.5,1.1,0.7L56.7,38.5z M54.3,37.6
			c0.2,0.2,0.4,0.3,0.6,0.5L54.1,38H54c-0.1-0.2-0.3-0.3-0.4-0.5C54,37.7,54.3,37.7,54.3,37.6L54.3,37.6z M53.5,37.9L53.5,37.9
			l-0.4-0.3l0,0c-0.2-0.2-0.3-0.3-0.5-0.5l0.3,0.1c0.1,0.1,0.2,0.3,0.3,0.4C53.3,37.6,53.4,37.8,53.5,37.9L53.5,37.9z M46,46.4
			l0.3,0.6l-0.6-0.7L45.5,46L46,46.4z M46.4,45.5c-0.1-0.1-0.3-0.3-0.5-0.5s-0.1-0.2-0.1-0.2l0.5,0.3C46.4,45.2,46.3,45.3,46.4,45.5
			L46.4,45.5z M47,45.9l-0.1-0.1c-0.1-0.2-0.2-0.3-0.3-0.5l0.4,0.3C47,45.7,47,45.8,47,45.9L47,45.9z M47.1,46.5
			c0,0.2,0.1,0.3,0.1,0.5l-0.4-0.7C46.9,46.3,46.9,46.4,47.1,46.5L47.1,46.5z M46.5,46c0,0.1,0,0.3,0.1,0.4
			c-0.2-0.3-0.3-0.5-0.3-0.5s0,0.1,0,0.2V46c0-0.1-0.1-0.2-0.1-0.3l0.1,0.1L46.5,46z M45.5,44.7l-0.2-0.2l-0.1-0.2L45.5,44.7
			c0.1,0,0.1,0.1,0.1,0.1L45.5,44.7z M45.2,45l0.2,0.5c-0.1-0.2-0.3-0.4-0.5-0.6l-0.1-0.2L45.2,45z M44.2,43.6
			c-0.1-0.2-0.1-0.3-0.2-0.3s0,0.1,0,0.3l-0.2-0.2c-0.1-0.2-0.2-0.3-0.2-0.3s0,0,0,0.1l0,0l-0.2-0.7l0,0c0.5,0.6,1,1.1,1.6,1.6
			c0,0,0,0.1,0,0.1C44.6,43.9,44.3,43.7,44.2,43.6L44.2,43.6z M44.8,45.2L44.8,45.2L44.8,45.2L44.8,45.2L44.8,45.2z M43.4,43.7
			c0,0.1,0.1,0.2,0.1,0.3c0.2,0.7,0.4,1.3,0.8,1.9c0.1,0,0-0.4-0.2-1V45c0.2,0.6,0.4,1.1,0.7,1.7c-0.5-0.5-0.9-1-1.3-1.6
			c-0.1-0.3-0.2-0.9-0.4-1.6c0-0.1,0-0.2-0.1-0.3C43.1,43.3,43.2,43.5,43.4,43.7L43.4,43.7z M43.2,42.9c-0.1-0.1-0.2-0.2-0.2-0.3
			c-0.1-0.3-0.1-0.6-0.3-0.8c0.1,0.1,0.2,0.3,0.4,0.5C43.1,42.4,43.2,42.7,43.2,42.9L43.2,42.9z M42.8,43.4v-0.2
			c-0.1-0.4-0.2-0.8-0.3-1.1c0,0.1,0.1,0.2,0.2,0.3C42.7,42.7,42.7,43,42.8,43.4L42.8,43.4z M42.7,41.7c0,0,0,0.2,0,0.4
			c-0.1-0.1-0.2-0.2-0.2-0.2c-0.1-0.4-0.2-0.7-0.3-0.7c-0.1,0.3-0.1,0.7,0,1L42,42c-0.1-0.3-0.1-0.7-0.1-1h0.2L42.7,41.7L42.7,41.7z
			 M40.8,38.5c0.2,0.2,0.4,0.4,0.7,0.6L41,39L40.8,38.5L40.8,38.5C40.7,38.6,40.7,38.6,40.8,38.5L40.8,38.5z M35.6,38l-0.8-0.8
			c-0.5-0.5-0.9-1-1.2-1.4s-0.5-0.6-0.5-0.6s0.1,0.3,0.3,0.7c0.4,0.5,0.7,1,1.2,1.5c0.5,0.6,1.1,1.1,1.7,1.6l0.1,0.2
			c0.4,0.4,0.8,0.7,1.2,1c0,0.1-0.1,0.2-0.1,0.3l0,0l-0.9-0.9l-0.3-0.3c-0.1-0.1-0.2-0.2-0.2-0.2c-0.2-0.2-0.4-0.4-0.5-0.5
			s-0.4-0.4-0.6-0.7c-0.4-0.6-0.9-1.1-1.5-1.5c0.3,0.7,0.7,1.3,1.2,1.8c0.4,0.5,0.8,0.9,1.1,1.2c0.1,0.2,0.3,0.3,0.4,0.5
			c0.1,0.1,0.1,0.3,0.2,0.4l0,0c-0.3-0.5-0.5-0.7-0.6-0.7s0,0.2,0.1,0.4L35.3,39c-0.6-0.7-1.3-1.4-2-2c0.5,0.8,1,1.5,1.7,2.2
			c0.3,0.3,0.6,0.6,0.9,0.9s0.3,0.3,0.5,0.5l0.1,0.1l0.4,0.6l0.5,0.7c0,0,0,0,0,0.1c-0.2-0.2-0.7-0.6-1.2-1.2L36,40.6l-0.3-0.4
			c0-0.1,0-0.2,0-0.3c0,0.1,0,0.2-0.1,0.2c-0.3-0.3-0.7-0.8-1.1-1.3c-0.5-0.6-1.1-1.2-1.8-1.6c0.4,0.7,0.9,1.3,1.5,1.8l0.6,0.7
			l0.2,0.3c0,0,0,0.1-0.1,0.2c-0.3-0.3-0.7-0.7-1.1-1.2c-0.6-0.7-1.3-1.3-2-1.8c0.6,0.7,1.2,1.4,1.8,2l0.2,0.2
			c0,0.1-0.1,0.3-0.2,0.5L33,39.3c-0.5-0.6-1.1-1.1-1.7-1.6c0.4,0.7,0.8,1.3,1.4,1.8c0.2,0.2,0.4,0.4,0.6,0.5l0,0l0.1,0.2v0.1
			c0,0.1-0.1,0.1-0.1,0.2l-0.3-0.3l-0.4-0.5l0.1,0.2l-0.7-0.7c-0.5-0.5-1-1-1.6-1.4c0.4,0.6,0.9,1.2,1.4,1.6
			c0.5,0.5,0.9,0.8,1.2,1.1l0.1,0.2L32.9,41l0.1,0.2l-0.1,0.3l-0.1-0.1c0,0,0,0,0,0.1c-0.4,0.7-0.8,1.3-1.3,1.9
			c-0.6,0.8-1.3,1.5-2,2.1c-0.6-0.7-1.3-1.3-2-1.9c-1.3-1-2-2-2.1-2s0.1,0.3,0.4,0.7c0.4,0.5,0.9,1,1.5,1.5c1,0.8,1.9,1.5,2.2,1.7
			c-0.6,0.5-1.2,1-1.8,1.4c-1,0.7-2,1.3-3.1,1.8c-0.6-0.8-1.3-1.5-2.1-2.2c-0.8-0.7-1.7-1.3-2.7-1.6c0,0.1,1.2,0.8,2.5,1.9
			c1,0.8,1.8,1.7,2.2,2c-0.3,0.2-0.7,0.3-1,0.5c-0.2-0.2-1.1-0.9-2.1-1.7c-0.7-0.6-1.5-1.2-2.3-1.7c0.6,0.7,1.3,1.4,2.1,1.9
			c0.7,0.6,1.4,1.1,2.2,1.5l-0.5,0.2c-0.2-0.2-0.4-0.4-0.6-0.5c-0.4-0.3-1-0.7-1.7-1.1c-0.6-0.3-1.1-0.7-1.6-1.1
			c-0.4-0.3-0.5-0.6-0.6-0.6s0,0.4,0.4,0.8c0.5,0.5,1,0.9,1.6,1.3c0.7,0.4,1.3,0.8,1.7,1.1s0.5,0.3,0.6,0.4l-0.5,0.2
			c-0.4-0.2-1-0.6-1.7-1c-0.7-0.5-1.4-0.9-2.1-1.2c0.6,0.6,1.2,1.1,2,1.5c0.5,0.3,1.1,0.6,1.6,0.8H22c-0.3,0.1-0.6,0.2-1,0.3
			c-0.1-0.2-1-0.8-1.9-1.5S17.3,47,17.2,47c0.3,0.8,0.9,1.5,1.6,1.9c0.6,0.5,1.3,1,2,1.3l-1.1,0.4l-1.9-1.7
			c-0.5-0.5-1.1-0.9-1.7-1.3c-0.5-0.3-0.8-0.4-0.8-0.4s1,0.8,2.3,1.9c0.6,0.5,1.2,1.1,1.9,1.5c-0.5,0.2-1.1,0.3-1.6,0.5
			c-0.5-0.6-1.1-1.1-1.7-1.5c-0.6-0.5-1.2-1-1.8-1.4c0.4,0.6,1,1.2,1.6,1.7c0.6,0.5,1.2,0.9,1.8,1.3c-0.8,0.2-1.6,0.4-2.3,0.6
			c-0.6-0.5-1.2-1-1.8-1.4c-0.6-0.5-1.3-1-2.1-1.3c0.6,0.6,1.2,1.1,1.9,1.5c0.6,0.4,1.2,0.8,1.8,1.2l-1,0.2c-0.2-0.2-1-0.8-1.9-1.4
			c-0.6-0.5-1.3-1-2-1.5c0.5,0.7,1.1,1.3,1.8,1.7c0.6,0.4,1.3,0.8,1.9,1.2l-1,0.2c-0.6-0.3-1.2-0.6-1.7-1c-0.6-0.5-1.2-0.9-1.9-1.2
			c0.5,0.6,1,1.1,1.7,1.5c0.5,0.3,1.1,0.6,1.6,0.8l-1.3,0.2c-0.4-0.3-0.9-0.5-1.4-0.8c-0.8-0.4-1.3-0.9-1.4-0.8s0.4,0.7,1.2,1.1
			c0.4,0.2,0.8,0.4,1.2,0.5l-0.9,0.2c-2.8,0.4-4.7,0.6-4.9,0.6c0.2-0.6,0.9-2.2,2-4.4c0.8-1.6,1.8-3.2,2.9-4.7
			c0.6-0.8,1.3-1.7,2-2.6c0.4-0.4,0.7-0.9,1.1-1.3s0.8-0.8,1.2-1.2c2.5-2.4,5.3-4.5,8.3-6.3c0.1,0,0.1,0,0.1,0s0,0,0-0.1l0.3-0.2
			c0.2,0.1,0.4,0.1,0.4,0s0-0.1-0.1-0.2c0.3-0.1,0.6-0.3,0.9-0.4c0.1,0.1,0.2,0.1,0.2,0.1s0-0.1,0-0.1c0.1-0.1,0.3-0.1,0.4-0.1
			l0.1,0.2c0.1,0.1,0.2,0.1,0.3,0.2c0.1,0.1,0.2,0.1,0.3,0c0-0.1,0-0.2,0-0.2c0,0,0-0.1,0-0.1c0-0.1-0.1-0.1-0.1-0.1s0,0.2-0.1,0.2
			s0,0,0,0c0,0,0-0.1-0.1-0.1c0,0,0,0-0.1-0.1c0.6-0.2,1.3-0.4,2-0.4c0.3,0.2,0.6,0.2,0.6,0.1s0-0.1-0.1-0.1h0.3
			c0.5,0,0.9,0.1,1.3,0.3c0,0-0.1-0.1-0.4-0.2c0.3,0.1,0.6,0.1,0.6,0s-0.5-0.3-1.1-0.6s-1.1-0.6-1.2-0.5s0.4,0.5,1,0.8l0.2,0.1
			L28.1,31c-0.2-0.1-0.5-0.1-0.7-0.1c-0.1-0.1-0.2-0.2-0.3-0.2c-0.4-0.4-0.7-0.8-0.8-0.7s0.1,0.5,0.6,0.9h-0.4l0,0
			c-0.3-0.2-0.5-0.4-0.8-0.6c-0.4-0.3-0.7-0.6-0.8-0.6s0.1,0.5,0.6,0.9c0.2,0.2,0.5,0.3,0.8,0.4c-0.5,0-0.9,0.1-1.4,0.2
			c-0.4-0.5-0.7-0.8-0.7-0.8s0.1,0.4,0.4,0.8l-0.3,0.1l-0.2,0l-0.2-0.2c-0.5-0.3-1.1-0.4-1.1-0.3s0.4,0.3,0.9,0.6l0,0
			c-0.3,0.1-0.6,0.2-0.9,0.4c0,0,0,0,0,0c-0.5-0.4-0.8-0.8-0.9-0.7s0.1,0.5,0.6,0.9l-0.1,0.1L22.1,32c-0.5-0.4-0.9-0.8-1-0.8
			s0.2,0.6,0.7,1l0.1,0.1l-0.3,0.2l-0.5-0.5c-0.5-0.6-0.9-1-1-1s0.2,0.6,0.8,1.2c0.1,0.2,0.3,0.3,0.4,0.4l-0.2,0.1
			c-0.2-0.1-0.4-0.3-0.6-0.5c-0.5-0.5-1-0.9-1.1-0.8s0.3,0.5,0.9,1c0.2,0.1,0.3,0.3,0.5,0.4c-0.3,0.2-0.6,0.3-1,0.5
			c-0.3-0.4-0.6-0.8-1-1.2c-0.4-0.4-0.8-0.7-1.3-1c-0.1,0.1,0.4,0.6,1,1.3c0.3,0.4,0.7,0.7,1.1,1l-0.5,0.3c-0.2-0.2-0.6-0.6-1.1-1.1
			c-0.4-0.5-0.8-0.9-1.3-1.3c0.2,0.6,0.6,1.1,1.1,1.5c0.3,0.4,0.7,0.7,1.2,1c-0.4,0.2-0.7,0.5-1.1,0.7c-0.1-0.2-0.2-0.3-0.3-0.5
			c-0.3-0.3-0.7-0.7-1.1-1.2c-0.5-0.5-1-1.1-1.4-1.6c4.6-2.5,9.5-3.6,13-3.3c1.5,0.1,3,0.5,4.4,1.2c0.5,0.3,1,0.6,1.4,1
			c-0.4-0.4-0.8-0.7-1.2-1h0.1l0.1,0.1c0.3,0.1,0.4,0.2,0.5,0.2l0,0c0.3,0.4,0.5,0.6,0.5,0.5s-0.1-0.3-0.3-0.7
			c0.2,0.2,0.5,0.3,0.7,0.4c0,0.1,0,0.3,0,0.4c0,0.6,0,1.1,0,1.7c0,0,0,0.1,0,0.1c-0.1-0.2-0.1-0.3-0.2-0.3c0,0.5,0.1,0.9,0.3,1.4
			c0,0.1,0,0.3,0,0.4c-0.3-0.4-0.6-0.8-1-1.1c-0.4-0.5-0.8-0.9-1.3-1.3c0.3,0.6,0.6,1.1,1.1,1.6c0.4,0.4,0.8,0.8,1.2,1.1v0.2
			c0,0.1,0,0.2,0,0.2l-0.7-0.7c-0.5-0.6-1.1-1.2-1.7-1.7c0.4,0.7,0.9,1.4,1.5,1.9c0.3,0.3,0.7,0.7,0.9,0.9c0,0.3,0.1,0.7,0.2,1
			l-0.1-0.1c-0.5-0.6-1.1-1.2-1.8-1.6c0.4,0.7,1,1.3,1.6,1.8l0.5,0.5c0.1,0.3,0.2,0.7,0.4,1l-0.7-0.8c-1.1-1.1-1.9-2.2-2-2.1
			c0.4,0.9,1,1.7,1.7,2.3c0.4,0.5,0.9,0.9,1.4,1.3c0.3,0.6,0.8,1.1,1.2,1.5c0.2,0.2,0.5,0.4,0.7,0.6c0,0,0,0.1,0,0.2
			c-0.2-0.3-0.6-0.6-1-1c-0.4-0.5-0.8-1-1.3-1.4C35.4,37.7,35.4,37.7,35.6,38L35.6,38z M35.8,41L35.8,41c0.1,0,0.1,0,0.1,0
			s0-0.1-0.1-0.2l0,0L36,41c0.4,0.4,0.9,0.8,1.4,1.1c0,0.1,0,0.3,0,0.4L37,42.1C36.5,41.6,36,41.2,35.8,41L35.8,41z M36.4,42.2
			c-0.2-0.2-0.5-0.4-0.7-0.6c0-0.1,0-0.2,0-0.3c0.1,0.1,0.2,0.3,0.3,0.4S36.2,41.9,36.4,42.2L36.4,42.2z M37.5,41.4L37.5,41.4
			C37.5,41.4,37.4,41.4,37.5,41.4L37.5,41.4z M37.3,40.5c0.1,0.1,0.2,0.1,0.3,0.2v0.2L37.3,40.5z M36.9,42.4
			c0.3,0.3,0.5,0.5,0.7,0.7c0,0.1,0,0.3,0.1,0.4l0,0c-0.1-0.2-0.3-0.3-0.5-0.6l-0.4-0.7L36.9,42.4z M28.9,50L28.9,50L28.9,50
			c0.4-0.5,0.7-0.8,1-1.1c0.1,0.1,0.2,0.2,0.2,0.2s0-0.1-0.1-0.3c0.1-0.1,0.1-0.2,0.1-0.2s-0.1,0-0.2,0s-0.1-0.2-0.2-0.3l0.1-0.1
			c0.2,0.2,0.5,0.4,0.9,0.5c-0.5,0.5-1,1-1.5,1.4l-0.1-0.1c0.5-0.4,0.8-0.8,0.7-0.9S29.4,49.6,28.9,50z M27.9,51l0.4-0.2
			c0.2,0,0.3,0,0.3,0s0-0.1-0.1-0.1l0.2-0.1l0.2-0.2l0.2,0.1l-0.9,0.8L27.9,51C27.9,51,27.9,51,27.9,51z M27.9,50.7l-0.1,0.1
			L27.9,50.7L27.9,50.7C27.9,50.7,27.9,50.7,27.9,50.7L27.9,50.7z M28.6,50.2L28.6,50.2L28.6,50.2z M29.5,48.1L29.5,48.1h-0.1
			l-0.5-0.5c0.1-0.2,0.4-0.4,0.6-0.7c0.4-0.4,0.9-0.8,1.3-1.3c0.1,0.1,0.2,0.3,0.3,0.4l0.1,0.2c-0.1,0.1-0.1,0.2-0.2,0.3
			c-0.1-0.1-0.1-0.2-0.2-0.3c0-0.1,0-0.1,0-0.2c0,0,0,0-0.1,0.1s-0.1-0.1-0.1-0.1s0,0.2,0,0.3c0,0.1-0.1,0.2-0.1,0.2
			c-0.1-0.1-0.1-0.1-0.1-0.1s0,0.1,0,0.3L30,47.2c-0.3-0.3-0.5-0.5-0.5-0.4s0.1,0.3,0.3,0.7c-0.1,0.1-0.2,0.2-0.2,0.3
			c-0.3-0.2-0.5-0.4-0.6-0.3S29.2,47.8,29.5,48.1L29.5,48.1z M30.9,45.4L30.9,45.4c0.1,0.2,0.2,0.3,0.4,0.5l0,0c0,0,0-0.1-0.1-0.1
			C31.1,45.7,31.1,45.6,30.9,45.4L30.9,45.4z M30.7,46.8L30.7,46.8l-0.1,0c0,0,0-0.1,0-0.2L30.7,46.8z M30.5,47.1l-0.1,0.1
			L30.5,47.1L30.5,47.1z M30,48.1c0.1-0.1,0.2-0.2,0.2-0.2l0.1,0.1c0.2,0.2,0.4,0.4,0.6,0.6l-0.2,0.3C30.5,48.6,30.3,48.3,30,48.1
			L30,48.1z M30.6,47.8l-0.1-0.1l0.2-0.3l0,0c0.4,0.4,0.7,0.6,0.8,0.5s-0.2-0.4-0.5-0.8l-0.1-0.1l0,0c0.2,0.3,0.5,0.5,0.5,0.4
			s-0.1-0.3-0.4-0.7c0.1-0.2,0.1-0.3,0.2-0.4c0.2,0.3,0.3,0.4,0.4,0.4s0-0.4-0.3-0.7l0,0c0.4,0.5,0.6,0.8,0.7,0.8s-0.1-0.5-0.5-1
			c-0.1-0.2-0.3-0.4-0.5-0.5c0,0,0.1-0.1,0.1-0.1c0.1,0.3,0.2,0.5,0.4,0.7c0.4,0.5,0.9,0.7,1,0.6s0-0.1-0.1-0.2
			c0.2,0.1,0.3,0.2,0.3,0.2c-0.5,0.7-1.1,1.4-1.7,2.1C31,48.2,30.8,48,30.6,47.8L30.6,47.8z M32.3,45.5c-0.3-0.4-0.5-0.8-0.6-0.8
			s0,0.5,0.3,1c0,0-0.1-0.1-0.1-0.1c-0.2-0.2-0.4-0.4-0.5-0.6l0.7-0.9l0,0l-0.1,0.2c0,0-0.1,0-0.1,0s0,0.1,0,0.2s0,0.1,0,0.1l0,0
			C32,44.8,32.2,45.1,32.3,45.5c0.3,0.2,0.5,0.4,0.6,0.7l-0.2,0.2C32.9,46.2,32.6,45.9,32.3,45.5L32.3,45.5z M32.3,44.2
			c0.1,0.1,0.3,0.3,0.4,0.4l0.2,0.2c0,0,0,0.1,0,0.2C32.7,44.6,32.5,44.4,32.3,44.2L32.3,44.2z M32.3,43.8L32.3,43.8L32.3,43.8
			L32.3,43.8z M32.3,44.5l-0.1-0.2l0.1-0.1C32.2,44.4,32.2,44.4,32.3,44.5L32.3,44.5z M33,45.4C33,45.4,33,45.4,33,45.4
			c0.1,0,0.2,0,0.2-0.1l0,0c0-0.1,0-0.2,0-0.2L33,44.9c0,0-0.1-0.1-0.1-0.1c0.3,0.3,0.5,0.4,0.6,0.4s-0.2-0.5-0.7-0.9
			c-0.1-0.1-0.3-0.2-0.5-0.3c0.2-0.2,0.3-0.4,0.5-0.7l0.1,0.2c0.1,0.2,0.3,0.5,0.5,0.7l0,0c0-0.1-0.1-0.1-0.1-0.2
			c-0.3-0.3-0.5-0.5-0.6-0.5s0,0.4,0.3,0.7l0,0c-0.1,0-0.1,0-0.1,0s0,0.1,0.1,0.1c0.1,0,0.1,0.1,0.2,0.1c0.2,0.2,0.3,0.3,0.4,0.3
			s0-0.2-0.1-0.3c0.2-0.1,0.3-0.3,0.4-0.4c0.1,0.1,0.2,0.1,0.2,0.1s0-0.1-0.1-0.3l0.1-0.3l0,0c0,0.1-0.1,0.2,0,0.3s0.1,0,0.2-0.1
			l0.1,0.1c0,0.1-0.1,0.2-0.2,0.3c-0.3,0.6-0.7,1.3-1.2,1.9L33,45.4z M32.7,42.8L32.7,42.8z M34.5,41c0,0-0.1,0.2-0.1,0.5
			c0,0,0-0.1,0-0.1l0,0v-0.6c0.2,0.2,0.4,0.2,0.4,0.2s-0.1-0.2-0.4-0.5c0-0.2,0-0.3,0-0.5c0,0,0,0.1,0,0.3L33.8,40
			c0.1-0.2,0.1-0.4,0.1-0.5c0.3,0.4,0.7,0.7,1.1,1c-0.1,0.5-0.1,1-0.2,1.4c0,0.2-0.1,0.4-0.2,0.5v-0.2c0-0.1,0-0.2-0.1-0.2
			C34.6,41.7,34.6,41.3,34.5,41z M34,42L34,42L34,42L34,42L34,42c0.1,0.1,0.2,0.2,0.2,0.3c0,0.2-0.1,0.3-0.1,0.5L34,42.6l0,0
			l0.1-0.1L34,42z M34,41.3c0,0.1,0,0.2,0.1,0.2L34,41.3C34,41.3,34,41.3,34,41.3L34,41.3z M34,40.5l0.2,0.1l-0.1,0.1L34,40.5z
			 M34.2,40.9L34.2,40.9L34.2,40.9C34.2,40.9,34.1,40.9,34.2,40.9L34.2,40.9z M33.9,41c0,0-0.1,0.1-0.1,0.1l-0.2-0.3l0,0
			c0-0.1,0.1-0.2,0.1-0.3C33.8,40.7,33.8,40.9,33.9,41L33.9,41z M33.7,42.3L33.7,42.3L33.7,42.3l-0.1,0l0,0v-0.1L33.7,42.3z
			 M33.8,42.8l0.3,0.4L34,43.4l-0.2-0.3c-0.2-0.2-0.3-0.4-0.4-0.5l0.1-0.2C33.5,42.5,33.6,42.7,33.8,42.8L33.8,42.8z M33.9,43.7
			c0,0.1-0.1,0.2-0.1,0.3c-0.1-0.2-0.2-0.4-0.4-0.7c-0.1-0.1-0.1-0.2-0.2-0.3l0.1-0.2c0.1,0.2,0.2,0.3,0.3,0.5
			C33.7,43.4,33.7,43.6,33.9,43.7L33.9,43.7z M33.3,42l-0.1-0.2l0.1-0.2l0.1,0.2C33.3,41.9,33.3,42,33.3,42z M33.2,42.1
			c0,0.1-0.1,0.2-0.1,0.3l0,0l0,0v0.1v0.1l-0.2,0.2c0,0,0,0,0,0c0.1-0.2,0.3-0.5,0.3-0.7L33.2,42.1z M34.4,43.3L34.4,43.3
			c0-0.1,0-0.2,0-0.3c0-0.2,0.1-0.3,0.1-0.4l0.1,0.1L34.4,43.3z M34.8,42.9L34.8,42.9L34.8,42.9c0.1-0.3,0.2-0.6,0.3-0.9
			c0.1-0.2,0.1-0.4,0.1-0.7c0.1,0.1,0.1,0.1,0.1,0.2c-0.2,0.7-0.5,1.4-0.8,2v-0.1C34.6,43.3,34.7,43.1,34.8,42.9L34.8,42.9z
			 M35.2,41.2c0-0.2,0-0.4,0-0.6l0.1,0.1c0,0,0,0.1,0.1,0.2s-0.1,0.2-0.1,0.4C35.4,41.3,35.3,41.3,35.2,41.2L35.2,41.2z M35.2,40.4
			L35.2,40.4c0-0.1,0-0.2,0-0.3c0.1,0.2,0.3,0.3,0.4,0.5l0,0L35.2,40.4z M12.1,39.9l0.2-0.3h0.1C12.3,39.6,12.2,39.8,12.1,39.9
			L12.1,39.9z M14.6,36c-0.3,0-0.5,0-0.8-0.1l0.4-0.1c0.3,0.1,0.6,0.1,0.9,0.1C15,36,14.8,36,14.6,36z M14.7,36.6
			C14.7,36.6,14.7,36.7,14.7,36.6c-0.2-0.1-0.3-0.2-0.5-0.3l0,0C14.3,36.4,14.4,36.5,14.7,36.6L14.7,36.6z M13.1,36.3l-0.2-0.2H13
			c0.1,0.1,0.3,0.3,0.5,0.5l0.3,0.3c0,0-0.1,0.1-0.1,0.1L13.1,36.3z M12.6,35.4c0.1-0.1,0.1-0.1,0.2-0.1c0.2,0.1,0.4,0.3,0.6,0.3
			l-0.8,0.1h-0.1l-0.1-0.2L12.6,35.4L12.6,35.4L12.6,35.4z M12.6,36.2l0.3,0.3c0.2,0.2,0.4,0.5,0.7,0.7c-0.1,0.1-0.2,0.3-0.3,0.4
			c0,0,0,0,0,0.1c0-0.2-0.1-0.3-0.1-0.3l0,0c-0.1-0.4-0.3-0.7-0.6-1l-0.1-0.2L12.6,36.2z M13.6,36.2L13.6,36.2l0.2,0.1
			C13.7,36.3,13.6,36.2,13.6,36.2L13.6,36.2z M13.6,35.6c-0.1-0.2-0.3-0.3-0.4-0.5c0.2-0.1,0.4-0.2,0.6-0.2h0.1
			c0.3,0.2,0.5,0.4,0.8,0.6h-0.1h-0.3L13.6,35.6z M15.5,36.2c0,0.1-0.1,0.2-0.1,0.3l0,0c-0.1-0.1-0.3-0.2-0.5-0.3
			C15,36.3,15.2,36.2,15.5,36.2L15.5,36.2z M15.2,36.8v0.1l-0.3,0.3c0.1-0.1,0.1-0.2,0.1-0.3c0-0.1,0-0.1,0-0.2L15.2,36.8z
			 M15.7,36.2l0.3-0.1c0.1,0,0.2,0,0.2,0l0,0c0.1,0,0.2-0.1,0.3-0.1l-0.8,0.7C15.7,36.5,15.7,36.3,15.7,36.2L15.7,36.2z M16.9,35.5
			H17l0,0H16.9z M13.7,29c0,0.3,0,0.5,0,0.7c-0.1-0.1-0.2-0.3-0.3-0.4c0,0,0-0.1,0-0.1c0-0.2,0-0.3,0.1-0.5L13.7,29z M13.5,28.2
			c0-0.2,0.1-0.4,0.1-0.5c0.1,0.1,0.2,0.2,0.3,0.3c0,0.2-0.1,0.4-0.1,0.6L13.5,28.2z M14,30.2c0,0,0-0.1-0.2-0.4
			c0.1-0.2,0.1-0.3,0.2-0.5c0.3,0.4,0.5,0.7,0.6,0.8l-0.9,0.5h-0.3l-0.1-0.1c0-0.2,0.1-0.5,0.1-0.9C13.7,30.1,14,30.3,14,30.2z
			 M14.1,29c0-0.1,0-0.2,0-0.3c0-0.1,0-0.2,0-0.3l0.3,0.3c-0.1,0.5,0,1,0.1,1s0.1-0.3,0.2-0.6l0.5,0.6v0.1l0,0
			c0.1,0.1,0.1,0.1,0.2,0.2l-0.7,0.4C14.4,29.8,14.2,29.4,14.1,29z M14.1,27.5l0.4,0.5c0,0.1-0.1,0.2-0.1,0.3l-0.3-0.4
			C14.2,27.7,14.2,27.6,14.1,27.5L14.1,27.5z M14.8,27.4l0.4,0.5c0,0.1,0,0.2,0,0.4l-0.3-0.4C14.9,27.7,14.9,27.5,14.8,27.4
			L14.8,27.4z M15.1,28.6c0,0.3,0,0.5,0,0.7c-0.1-0.2-0.2-0.4-0.4-0.6c0,0,0-0.1,0-0.1c0-0.1,0-0.2,0-0.3
			C14.9,28.3,15,28.5,15.1,28.6L15.1,28.6z M15.6,28.9c0,0.4,0,0.7,0.1,0.7l-0.3,0.1c0-0.1-0.1-0.2-0.1-0.3c0.1-0.2,0.2-0.4,0.2-0.6
			L15.6,28.9z M15.5,28.6c0,0,0-0.1,0-0.1c0-0.1,0-0.2,0-0.3c0,0.1,0.1,0.1,0.1,0.2c0,0.1,0,0.2,0,0.4L15.5,28.6z M15.2,31.3
			c0.1,0.2,0.1,0.4,0.2,0.5c0.3,0.5,0.6,0.9,1,1.3c0.8,0.7,1.4,1.3,1.6,1.5l-0.4,0.3c-0.3-0.4-0.9-1-1.5-1.8s-1-1.2-1.3-1.6
			L15.2,31.3z M15.8,29.1c0-0.1,0-0.2,0.1-0.4c0.2,0.3,0.4,0.4,0.4,0.4s-0.1-0.3-0.4-0.7v-0.1c0-0.1,0-0.3,0.1-0.4l0.4,0.5
			c0,0.3,0.1,0.5,0.1,0.5s0.1-0.1,0.1-0.3c0.1,0.1,0.3,0.2,0.4,0.4c-0.5,0.2-0.9,0.4-1.4,0.6C15.7,29.6,15.8,29.4,15.8,29.1
			L15.8,29.1C15.8,29.1,15.8,29.1,15.8,29.1L15.8,29.1z M22.7,27.4l-0.4,0.1L21.8,27l-0.2-0.2l-0.1-0.2l0,0
			C22,26.9,22.5,27.2,22.7,27.4L22.7,27.4z M22.2,26.7l1.4,0.5l-0.8,0.1C22.6,27.1,22.4,26.9,22.2,26.7L22.2,26.7z M25,26.6L25,26.6
			L25,26.6c0,0,0-0.1,0-0.1l0,0c0.2,0.2,0.4,0.4,0.6,0.5l0.4,0.3h-0.5L25,26.6L25,26.6z M27.4,27.2h-0.7c-0.1-0.1-0.2-0.1-0.3-0.2
			c0.1-0.1,0.1-0.3,0.1-0.4l0.3,0.2C27,26.9,27.2,27.1,27.4,27.2L27.4,27.2z M27.3,26.8c0-0.1,0-0.1,0-0.2l0.3,0.2
			c0.1,0.1,0.2,0.1,0.3,0.2c0,0.1,0,0.2,0.1,0.3l0,0L27.3,26.8z M28.5,27.4h-0.2h-0.2c0,0,0-0.1,0-0.1L28.5,27.4z M28.2,26.8
			c0-0.1,0-0.2,0-0.3l0,0l0.2,0.2c0,0.1,0.1,0.3,0.1,0.4C28.5,27,28.3,26.9,28.2,26.8L28.2,26.8z M28.8,26.6L28.8,26.6l-0.1-0.2
			c0-0.2,0-0.3,0-0.5c0.1,0.1,0.3,0.3,0.4,0.4s0,0.3,0,0.5L28.8,26.6z M29.2,27.3c0,0.1,0,0.2,0,0.2h-0.1l-0.2-0.2
			c0-0.1,0-0.2-0.1-0.3L29.2,27.3z M31.9,27.1L31.9,27.1c0-0.1,0-0.2,0-0.3c0.1,0.1,0.1,0.3,0.2,0.5C32,27.3,32,27.2,31.9,27.1
			L31.9,27.1z M32.2,28.1L32,27.9l0,0l0,0c0,0,0,0,0.1,0l0,0L32.2,28.1z M32.1,28.6L32.1,28.6l0.2,0.1c-0.3-0.2-0.7-0.4-1.1-0.5l0,0
			c0,0,0-0.1-0.1-0.1l0.4,0.2L32.1,28.6z M30.1,27.7l-0.3-0.3c0-0.1,0-0.2,0-0.4l0,0c0.1,0.1,0.2,0.2,0.3,0.3
			c0.4,0.4,0.8,0.6,0.9,0.8c-0.1-0.1-0.3-0.1-0.5-0.2c0,0,0.1,0,0.1-0.1S30.4,27.7,30.1,27.7L30.1,27.7z M30.3,27
			C30.3,27,30.3,27,30.3,27c0-0.1,0.1,0.1,0.2,0.2v0.2h-0.1c-0.2-0.2-0.5-0.5-0.7-0.7c0-0.1,0-0.1,0-0.2l0.1,0.1l0.2,0.1l0.1,0.1
			l0,0C30.3,26.9,30.3,27,30.3,27L30.3,27z M30.2,25.8l0.1,0.1l0.1,0.1v0.2l-0.2-0.1C30.3,26,30.3,25.9,30.2,25.8L30.2,25.8z
			 M30.4,26.6L30.4,26.6L30.4,26.6z M30.7,27.4l0.1,0.2L30.7,27.4L30.7,27.4z M30.7,26.4L30.7,26.4C30.7,26.4,30.7,26.5,30.7,26.4
			L30.7,26.4L30.7,26.4z M30.7,27L30.7,27l0.1,0.1c0,0,0,0.1,0,0.1L30.7,27z M30.7,25.9L30.7,25.9c0-0.2,0-0.4-0.1-0.7
			c0,0.1,0.1,0.1,0.1,0.2C30.8,25.5,30.7,25.7,30.7,25.9L30.7,25.9z M31.1,26.3c0-0.2,0-0.4-0.1-0.6c0.1,0.2,0.2,0.4,0.3,0.5
			l0.2,0.4l-0.2-0.1L31.1,26.3z M31.3,27.6L31.3,27.6L31.3,27.6L31.3,27.6z M31.5,26.1c-0.2-0.6-0.6-1.1-1-1.5l0,0v-0.2
			c0.2,0.3,0.4,0.4,0.5,0.3s-0.2-0.4-0.5-0.9c0-0.3-0.1-0.6-0.1-0.8c0.1,0.1,0.2,0.2,0.4,0.3c0.2,0.6,0.4,1.1,0.7,1.6
			C31.4,25.4,31.5,25.7,31.5,26.1L31.5,26.1z M30.3,25.4c-0.1-0.1-0.1-0.2-0.2-0.2l-0.1-0.4v-0.3v0l0.2,0.2c0,0,0,0.1,0,0.1
			C30.3,25,30.3,25.2,30.3,25.4L30.3,25.4z M30,23.9l-0.1-0.3l0.1,0.1c0.1,0.1,0.1,0.2,0.2,0.3c0,0.1,0,0.1,0,0.2L30,23.9z M30,25.9
			l-0.1-0.1l-0.1-0.1v-0.3c0-0.1,0-0.2,0-0.3l0.1,0.2C29.9,25.5,29.9,25.7,30,25.9L30,25.9z M29.7,24.6c0-0.2,0-0.5-0.1-0.6l0.1,0.1
			c0,0.2,0,0.4,0.1,0.7C29.8,24.6,29.7,24.6,29.7,24.6L29.7,24.6z M29.7,26.9c0,0.2,0.1,0.4,0.1,0.5l-0.3-0.3v-0.4l0,0L29.7,26.9z
			 M29.7,27.6l-0.2-0.1c0,0,0-0.1,0-0.1L29.7,27.6z M29.5,26.2c0-0.1,0-0.2,0-0.4v-0.3l0.1,0.2c0,0.2,0,0.4,0.1,0.6L29.5,26.2z
			 M29.4,25.1c0-0.3,0-0.5-0.1-0.6l0.1,0.2c0,0.2,0,0.4,0,0.6L29.4,25.1z M32.5,28.2l0.1,0.1c0.2,0.2,0.4,0.3,0.6,0.4
			c0,0,0-0.1-0.1-0.2c0,0,0,0,0.1,0.1c0.1,0.1,0.1,0.2,0.2,0.3l-0.9-0.6l0,0c0,0-0.1-0.1-0.1-0.2L32.5,28.2z M34.2,28.5
			c0.2,0.2,0.3,0.3,0.4,0.4s-0.1,0.3-0.1,0.5c-0.2-0.2-0.3-0.5-0.4-0.9L34.2,28.5z M34.7,32.2c0-0.2,0-0.4,0-0.6s0-0.5,0-0.7
			l0.1,0.4l0.1,0.1C34.8,31.7,34.7,32,34.7,32.2L34.7,32.2z M35.3,32.7c-0.1-0.2-0.2-0.3-0.2-0.5s0-0.5,0-0.7
			c0.3,0.8,0.7,1.6,1.2,2.4c0.3,0.6,0.7,1.1,1,1.5c-0.1-0.1-0.2-0.1-0.2-0.1c0-0.1-0.1-0.1-0.1-0.2c-0.6-0.9-1.1-1.7-1.4-2.3
			L35.3,32.7C35.3,32.7,35.3,32.7,35.3,32.7L35.3,32.7z M37.8,43.9V44V43.9L37.8,43.9z M37.7,36.7c-0.2-0.3-0.4-0.7-0.6-1
			c0.1,0.2,0.3,0.4,0.6,0.6c0.3,0.5,0.6,0.8,0.7,1c-0.4-0.2-0.6-0.4-0.8-0.6L37.7,36.7z M38.3,37c0.1,0.1,0.1,0.2,0.2,0.2
			c0.2,0.2,0.4,0.4,0.6,0.6l-0.5-0.4c-0.1-0.2-0.2-0.3-0.3-0.4L38.3,37z M34.6,27.5c0.1-0.3,0.3-0.6,0.6-1c0,0,0,0,0.1,0l0.2-0.1
			c0,0,0.1-0.1,0.2-0.1l0.2,0.1c-0.2,0.3-0.5,0.6-0.7,0.9c-0.1,0.2-0.3,0.4-0.3,0.6c0,0,0,0.1,0,0.1C34.8,27.7,34.7,27.6,34.6,27.5z
			 M37.2,25.5L37.2,25.5l-0.2,0l0.1-0.1l0.1-0.1l0,0c0,0,0,0,0,0L37.2,25.5L37.2,25.5L37.2,25.5z M37.2,24.9
			c-0.1-0.1-0.3-0.2-0.4-0.3c0,0,0-0.1,0-0.1l0.1-0.2c0.1,0.1,0.2,0.3,0.3,0.5L37.2,24.9z M37,25.1L37,25.1l-0.2,0.2l-0.1-0.1
			c0-0.1,0-0.1,0-0.3v-0.1c0,0,0-0.1,0.1-0.1C36.8,24.9,36.9,25,37,25.1L37,25.1z M36.8,25.7l-0.2,0.1L36.8,25.7L36.8,25.7z
			 M36.6,25.2l-0.1-0.1l0.1-0.1l0,0L36.6,25.2z M36.5,25.5c-0.2,0.2-0.4,0.4-0.5,0.5L35.8,26c0.2-0.2,0.3-0.4,0.5-0.6L36.5,25.5z
			 M37.5,25.5L37.5,25.5L37.5,25.5z M37.5,25L37.5,25L37.5,25L37.5,25L37.5,25L37.5,25z M38,24.6L38,24.6l-0.2,0.1l0,0L38,24.6z
			 M38,25.4h-0.2l-0.1-0.1l0.1-0.1L38,25.4z M37.7,24.4l-0.2,0.1c-0.2-0.2-0.3-0.3-0.4-0.5l0.2-0.2C37.5,24.1,37.6,24.3,37.7,24.4
			L37.7,24.4z M37.2,19.7c0,0.1,0,0.1,0,0.2l0,0C37.2,19.8,37.2,19.8,37.2,19.7z M37.1,20.6L37,20.5c0-0.1,0-0.2,0.1-0.3l0.1,0.1
			C37.2,20.4,37.2,20.5,37.1,20.6z M26.2,3.7L26.2,3.7L26.6,4l0.9,0.8c1.2,1,2.3,2,3.4,3.1c1.8,1.8,3.4,3.8,4.7,6
			c0.6,1,1,2.1,1.3,3.3l-0.4-0.5c-0.3-0.4-0.7-0.9-1.1-1.2c-0.1,0,0.2,0.8,0.8,1.5c0.2,0.3,0.5,0.5,0.8,0.8c0,0.2,0.1,0.4,0.1,0.6
			l-0.6-0.7c-0.6-0.7-1.1-1.3-1.1-1.2c0.2,0.5,0.5,1,0.9,1.4c0.3,0.3,0.5,0.6,0.8,0.9c0,0,0,0,0,0.1c0,0.4,0,0.7,0,1.1
			c-0.1-0.2-0.3-0.5-0.5-0.7c-0.3-0.5-0.6-0.9-1-1.3c0.1,0.6,0.4,1.1,0.7,1.5c0.2,0.3,0.5,0.6,0.7,0.9c0,0.1,0,0.3,0,0.3
			c0-0.1-0.1-0.1-0.1-0.2c-0.4-0.6-0.8-1-0.8-1s0.2,0.5,0.6,1.1c0.1,0.2,0.3,0.4,0.4,0.6c0,0.3-0.1,0.6-0.2,0.9
			c-0.1-0.2-0.3-0.5-0.5-0.7c-0.3-0.4-0.6-0.8-1-1.2c0.1,0.5,0.4,1,0.8,1.4c0.3,0.3,0.5,0.6,0.7,0.8l-0.2,0.6
			c-0.1-0.1-0.1-0.3-0.3-0.4c-0.3-0.4-0.5-0.6-0.6-0.6s0,0.4,0.3,0.8c0.1,0.2,0.3,0.3,0.4,0.5c0,0.2-0.1,0.4-0.2,0.6
			c-0.1-0.1-0.3-0.3-0.4-0.5c-0.4-0.5-0.6-1-0.7-1s0,0.6,0.4,1.1c0.2,0.2,0.3,0.4,0.6,0.5v0.1c-0.1,0.2-0.1,0.4-0.2,0.5l-0.1,0.1
			l-0.2-0.2l-0.2-0.3c-0.3-0.5-0.7-0.9-0.7-0.8s0.1,0.5,0.5,1c0.1,0.2,0.3,0.3,0.5,0.5v0l-0.2,0.3c-0.1-0.2-0.2-0.4-0.4-0.6
			c-0.4-0.6-0.8-1-0.8-1s0.2,0.5,0.6,1.1c0.2,0.3,0.3,0.5,0.5,0.6l-0.2,0.2l-0.3-0.1c-0.1-0.3-0.3-0.5-0.5-0.9c-0.3-0.5-0.6-1-1-1.5
			c-0.2-0.3-0.5-0.6-0.7-0.9c-0.6-0.6-1.2-1.2-1.9-1.6c0.5,0.7,1,1.3,1.6,1.9c0.5,0.6,1,1.1,1.3,1.4c0.1,0.3,0.3,0.5,0.5,0.9
			c0.1,0.2,0.3,0.4,0.4,0.7c0,0,0,0.1,0.1,0.1v0.1c0.1,0.1,0.2,0.2,0.3,0.3c-0.1,0.2-0.2,0.3-0.3,0.5c-0.1,0-0.1,0-0.2,0h0.2
			c-0.1,0.2-0.2,0.4-0.3,0.5s0,0.1,0,0.1L34,26.7c-0.2-0.2-0.3-0.5-0.5-0.6c0.2,0.2,0.3,0.3,0.4,0.2c-0.3-0.6-0.7-1-1.2-1.5
			c-0.4-0.5-0.9-0.9-1.4-1.3c0,0,0.1,0.4,0.5,0.8c-0.3-0.2-0.4-0.3-0.5-0.3c0.4,0.6,0.8,1.1,1.3,1.5c0.4,0.4,0.7,0.8,0.9,1.1
			c0.1,0.1,0.1,0.2,0.2,0.3c0.2,0.3,0.4,0.5,0.5,0.7c-0.1,0.3-0.2,0.5-0.1,0.5c0.1-0.1,0.2-0.3,0.2-0.4l0.3,0.3
			c-0.1,0.2-0.1,0.4-0.2,0.6c-0.1-0.2-0.2-0.4-0.4-0.5c-0.1-0.2-0.3-0.3-0.5-0.5l-0.1-0.2c0.2,0.1,0.2,0.1,0.2,0.1l-0.3-0.1v-0.1
			c0.3,0.2,0.4,0.3,0.5,0.3s-0.4-0.5-1-1.2c-0.4-0.6-0.7-1.1-1-1.4c-0.1-0.2-0.2-0.4-0.3-0.7c0,0,0,0.1,0,0.3l-0.1-0.1
			c-0.3-0.9-0.5-1.7-0.7-2.6c0.4,0.5,0.9,1,1.4,1.4l1,0.9c0,0.1,0,0.1,0.1,0.2l-0.2-0.2c-0.5-0.6-1.1-1.1-1.8-1.5
			c0.5,0.6,1,1.2,1.6,1.7c0.3,0.3,0.6,0.6,0.9,0.9c0.3,0.6,0.5,1.1,0.6,1.1s0-0.3-0.1-0.6c0.1,0.1,0.2,0.1,0.3,0.2
			c0.1,0.2,0.2,0.3,0.3,0.2s-0.2-0.6-0.5-1.3s-0.8-1.1-0.8-1.1s0,0.1,0.1,0.3c-0.3-0.4-0.7-0.8-1.2-1.2c-0.8-0.7-1.4-1.3-1.6-1.4
			c0-0.3-0.1-0.5-0.1-0.8l-0.2-1.3c0.3,0.4,1,1.1,1.7,1.9c0.7,0.7,1.4,1.4,2.2,2c-0.6-0.8-1.3-1.5-2-2.2c-0.6-0.7-1.3-1.3-2-1.9
			l0-0.3l-0.4-2c-0.3-1.4-0.5-2.8-0.9-4.4S28.4,9.6,27.8,8c-0.3-0.9-0.5-1.7-0.8-2.5c-0.2-0.4-0.3-0.8-0.5-1.3L26.2,3.7L26.2,3.7
			C26.3,3.7,26.2,3.7,26.2,3.7z M29.7,19.5c-0.2-0.3-0.5-0.6-0.8-1s-0.4-0.7-0.6-0.9l0.2,0.3c0.4,0.4,0.7,0.7,0.9,0.9l0.1,0.5
			L29.7,19.5z M24.7,4.9L24.7,4.9c0,0.4,0.1,0.8,0.3,1.2l-0.1-0.2l-0.1-0.3V5.5V5.3C24.8,5.1,24.8,5,24.7,4.9
			C24.7,4.8,24.8,4.8,24.7,4.9c0.1-0.1,0-0.2-0.1-0.5s0-0.2-0.1-0.3C24.6,4.4,24.7,4.7,24.7,4.9z M24.5,8c0,0.1,0.1,0.3,0.1,0.4
			l-0.1-0.1L24.5,8z M24.3,8.8l0.1-0.4c0,0.1,0.1,0.2,0.2,0.3l0.1,0.1c0.1,0.4,0.2,0.6,0.2,0.6s0-0.1,0-0.3c0.2,0.3,0.5,0.6,0.8,0.9
			c1,0.9,1.7,1.8,1.7,1.8s-0.1-0.3-0.4-0.6c-0.1-0.2-0.3-0.4-0.4-0.6c0,0,0.1,0.1,0.1,0c-0.2-0.5-0.5-0.9-0.8-1.3V9.2
			c0.3,0.4,0.5,0.6,0.6,0.6c-0.2-0.6-0.6-1.1-1-1.6c-0.3-0.3-0.6-0.6-0.9-0.9c0-0.1,0-0.3,0-0.4s0-0.2,0-0.3
			c0.2,0.2,0.4,0.5,0.6,0.8c0.4,0.5,0.8,1,1.3,1.4c-0.2-0.6-0.6-1.1-1-1.6c0.2,0.1,0.3,0.2,0.3,0.2s0-0.1-0.1-0.2
			c0.2,0.2,0.3,0.2,0.3,0.2S26,7.2,25.8,7l0,0c-0.1-0.6-0.3-1.2-0.5-1.8c-0.2-0.4-0.3-0.8-0.5-1c0,0,0.1,0,0.1,0c0-0.1,0-0.1,0-0.2
			C25,4.1,25,4.3,25.1,4.4l0.2,0.4c0.2,0.4,0.4,0.8,0.5,1.2c0.3,0.8,0.6,1.6,0.9,2.4c0.5,1.6,1,3.2,1.4,4.7l0.1,0.3
			c-0.4-0.6-1-1.3-1.7-2L24.3,8.8L24.3,8.8z M25.8,9.5c0.2,0.2,0.3,0.5,0.5,0.7L26,9.9c-0.4-0.4-0.8-0.8-1.1-1.1V8.6
			c0-0.3-0.1-0.6-0.1-0.9l0.5,0.6C25.1,8.2,25,8.1,25,8.1C25.2,8.6,25.4,9.1,25.8,9.5L25.8,9.5z M25,5.3L25,5.3
			c0.2,0.5,0.4,0.9,0.5,1.2l-0.2-0.3c-0.1-0.3-0.3-0.5-0.4-0.8L25,5.3z M24.2,9.1c0.4,0.5,0.9,1.2,1.5,1.9c-0.7-0.7-1.3-1.3-1.6-1.7
			C24.1,9.3,24.2,9.2,24.2,9.1z M24,9.5c0.4,0.5,1.1,1.3,1.9,2.1c1.4,1.5,2.4,2.8,2.5,2.8c-0.2-0.6-0.6-1.1-1-1.6l0.9,1
			c0.2,0.7,0.4,1.4,0.5,2.1c0-0.1-0.1-0.2-0.2-0.3s-0.1-0.2-0.3-0.5c-0.3-0.6-0.7-1.2-1.1-1.7c-0.6-0.8-1.3-1.6-2-2.4
			c-0.4-0.5-0.7-0.8-0.7-0.8s0,0,0,0.1c-0.2-0.2-0.4-0.4-0.6-0.5C23.9,9.7,24,9.6,24,9.5z M7.9,12.7c-0.2-1-0.5-2-0.9-3.1
			C6.8,9.1,6.6,8.5,6.3,8C6.2,7.7,6.3,7.8,6.2,7.7s0-0.1,0-0.1h0.1l0,0h0.2h0.2c0.7,0.1,1.3,0.1,2,0c0.4,0,0.9-0.1,1.3-0.2
			c0,0.1,1.4,0.4,3.1,1.3L13,9l0,0l0,0l0,0h0.1c0,0,0.1,0,0.1,0l0,0c1.6,0.9,2.7,2,2.8,1.9c-0.7-0.9-1.6-1.7-2.7-2.2
			c-1-0.6-2.1-0.9-3.2-1.1l2.4-0.4c1.5-0.3,3-0.3,4.5,0c0.7,0.2,1.4,0.4,2,0.7c0.7,0.3,1.3,0.6,2,1l0,0c0.1,0.2,0.3,0.4,0.5,0.6
			c0.5,0.6,1,0.9,1.1,0.9s-0.2-0.4-0.6-0.9c1.8,1.2,3.4,2.6,4.8,4.2c0.6,0.6,1.1,1.3,1.5,2c-0.4-0.6-0.9-1.1-1.5-1.6
			c0.3,0.7,0.8,1.3,1.3,1.9c0.4,0.5,0.8,0.9,1,1.2l0.2,0.3l0.2,0.6l-0.6-0.6c-0.4-0.5-0.9-0.9-1.4-1.3c0,0,0.1,0.4,0.5,0.8
			c0.1,0.6,0.4,1.1,0.8,1.6c0.3,0.4,0.7,0.8,1.1,1.2l0.3,1.2l0,0c-0.2-0.3-0.5-0.7-0.9-1.1c-0.6-0.8-1.2-1.4-1.2-1.3
			c0.2,0.6,0.6,1.1,1,1.5c0.4,0.5,0.8,0.9,1.2,1.2c0.1,0.5,0.3,1.1,0.4,1.5c-0.1-0.2-0.2-0.3-0.3-0.5c0-0.3-0.1-0.5-0.1-0.5
			s0,0.1-0.1,0.3l-0.2-0.3c-0.5-0.7-0.9-1.3-1-1.2c0.1,0.5,0.4,1,0.8,1.4c0.2,0.2,0.3,0.4,0.5,0.5s0,0.4,0,0.6l-0.3-0.5
			c0-0.2-0.1-0.3-0.1-0.3s0,0,0,0.1c-0.1-0.2-0.2-0.2-0.3-0.2s0.1,0.3,0.3,0.7c0,0.1,0,0.3,0,0.5l-0.1-0.1c0-0.1,0-0.2-0.1-0.2
			s0,0,0,0.1c-0.3-0.3-0.5-0.5-0.5-0.5s0.2,0.4,0.5,0.8c0,0.2,0,0.4,0,0.6c-0.5-0.6-0.9-1-0.9-0.9c0.2,0.3,0.4,0.7,0.6,1
			c0,0.2,0,0.4,0,0.5c-0.1-0.1-0.1-0.1-0.1-0.1s0,0.1,0.1,0.3s0,0.6,0,0.9l0,0c-0.1-0.1-0.3-0.3-0.4-0.4s0-0.4-0.1-0.4
			s-0.1,0.1-0.1,0.3C28.2,25,28,24.8,28,24.8s0.1,0.3,0.4,0.7c0,0.2,0,0.4,0,0.6L28.2,26c0-0.3-0.1-0.4-0.1-0.4S28,25.7,28,25.8
			c-0.5-0.4-0.9-0.7-0.9-0.7s0.3,0.5,0.9,1c0,0.1,0,0.2,0,0.3c0,0,0,0.1,0,0.1l-0.1-0.1l-0.5-0.4c0-0.5-0.2-0.8-0.3-0.8s0,0.2,0,0.5
			c-0.4-0.3-0.6-0.6-0.7-0.5s0.2,0.5,0.7,0.9c0,0.1,0,0.2,0,0.3l-0.1-0.1l-0.5-0.4c0-0.2-0.1-0.4-0.1-0.4s-0.1,0.1-0.1,0.2
			c-0.5-0.4-0.8-0.6-0.8-0.6s0.3,0.4,0.8,0.9c0,0,0,0.1,0,0.1c0,0.2,0,0.3,0.1,0.5l-0.3-0.2c-0.6-0.4-1.1-0.8-1.2-0.8s0,0.1,0.2,0.3
			c-0.1,0-0.1,0.1-0.1,0.2L24.5,26c-0.4-0.5-0.9-0.9-1.5-1.2c0.3,0.6,0.7,1,1.2,1.4c0.3,0.3,0.6,0.6,1,0.8h-0.4
			c-0.6-0.6-1.3-1.2-1.9-1.7c-0.6-0.6-1.3-1.2-2-1.7c0.5,0.7,1.1,1.4,1.8,1.9c0.6,0.5,1.3,1.1,2,1.5l-0.5,0c0-0.1-1.1-0.8-2.2-1.8
			c-0.7-0.7-1.4-1.3-2.2-1.9c0.6,0.8,1.2,1.5,2,2.1c0.7,0.7,1.5,1.2,2.3,1.6h-0.5c-1-0.7-2.1-1.3-3.2-1.9L20,25.1L19.6,25l0.1,0.1
			l0,0c-0.2-0.2-0.7-0.5-1.3-1.1c-0.7-0.7-1.4-1.2-1.4-1.1s0.3,0.5,0.9,1.1l-0.5-0.3c-0.7-0.4-1.2-0.8-1.3-0.8s0.2,0.4,0.7,0.8
			c-1.5-0.7-3.1-1.5-4.7-2.4l0,0c0.1,0,0-0.2-0.1-0.5l0,0c0.4,0.3,0.7,0.5,0.8,0.5s-0.2-0.4-0.6-0.7S11.4,20,11.4,20s0,0.1,0.2,0.3
			c-0.2-0.1-0.4-0.1-0.4-0.1s0.2,0.3,0.4,0.5s0.3,0.3,0.4,0.4l0,0c-0.5-0.3-0.9-0.5-1.4-0.8c-0.2-0.3-0.4-0.6-0.6-1l0,0
			c0,0,0-0.2-0.2-0.4l-0.3-0.7c0.2,0.5,0.5,0.8,0.5,0.8c-0.1-0.6-0.3-1.1-0.5-1.6c-0.3-0.9-0.3-1.6-0.4-1.6
			c-0.2,0.6-0.1,1.2,0.1,1.7c0,0.1,0,0.1,0.1,0.2c0,0,0-0.1-0.1-0.1C8.7,16,8.2,14.4,7.9,12.7z M9.1,18.7c0-0.1-0.1-0.2-0.1-0.4
			l0.4,0.4c0.3,0.4,0.5,0.9,0.8,1.3l-0.5-0.3c0.1,0,0.1,0,0.1,0C9.6,19.4,9.4,19.1,9.1,18.7z M9.6,19.7c-0.7-0.5-1.4-0.9-2-1.4l0,0
			c0.4,0.3,0.9,0.6,1.4,0.7C9.2,19.3,9.4,19.5,9.6,19.7z M8.3,16.5c0.1,0.4,0.3,0.8,0.5,1.1L8.2,17c-0.1-0.1-0.1-0.1-0.2-0.2v-0.1
			C8.1,16.7,8.2,16.6,8.3,16.5z M7.8,16.8L7.8,16.8L7.8,16.8L7.8,16.8z M7.6,16.9c0.2,0.3,0.3,0.7,0.6,1c-0.3-0.3-0.6-0.6-1-0.9
			C7.3,17,7.4,16.9,7.6,16.9z M7,17c0.2,0.4,0.5,0.7,0.8,1l-0.3-0.3c-0.2-0.2-0.5-0.4-0.7-0.5L6.6,17H7z M9.4,28.7L9.4,28.7
			L9.4,28.7L9.6,29L9.4,28.7z M9.9,29l-0.5-0.6c0,0,0,0,0-0.1s0-0.1,0-0.1s0.1-0.2,0.1-0.3c0.2,0.2,0.3,0.4,0.5,0.6
			C9.9,28.6,9.9,28.8,9.9,29L9.9,29z M10.7,29.9l-0.3-0.2l-0.4-0.5c0-0.1,0.1-0.3,0.1-0.5c0.2,0.3,0.4,0.5,0.6,0.7
			C10.8,29.6,10.7,29.8,10.7,29.9z M10.9,28.5c0,0.2,0,0.4-0.1,0.5l-0.5-0.7c0-0.1,0-0.1,0.1-0.2l0.1-0.3c0,0.1,0.1,0.1,0.1,0.2
			S10.7,28.4,10.9,28.5z M11.6,30.3c-0.2-0.1-0.5-0.2-0.7-0.4c0-0.1,0.1-0.2,0.1-0.3c0.3,0.3,0.4,0.4,0.4,0.4s-0.1-0.3-0.4-0.6
			c0-0.1,0.1-0.3,0.1-0.5l0.6,0.7c0,0.3,0,0.5,0,0.7L11.6,30.3z M11.7,29.2l-0.5-0.7c0-0.2,0-0.4,0.1-0.6c0.1,0.2,0.2,0.4,0.3,0.5
			s0.1,0.2,0.2,0.3C11.7,28.8,11.7,29,11.7,29.2z M11.9,30.5c0-0.1,0-0.3,0-0.4l0.5,0.6C12.3,30.6,12.1,30.5,11.9,30.5z M12,29.6
			c0-0.1,0-0.2,0-0.4c0-0.1,0-0.1,0-0.2l0.4,0.5c0,0.2,0,0.4,0,0.6L12,29.6z M12.4,29c0,0,0,0.1,0,0.1L12,28.5c0-0.2,0-0.4,0-0.5
			l0.1,0.2l0.3,0.4C12.4,28.7,12.4,28.8,12.4,29L12.4,29z M12.4,28c-0.5-0.8-1.1-1.5-1.7-2.1c0.3,0.7,0.7,1.4,1.2,2
			c0,0.1-0.1,0.2-0.1,0.4l-0.6-0.9c0-0.2-0.1-0.3-0.1-0.3s0,0,0,0.1c-0.4-0.7-0.8-1.3-1.3-1.9c0.3,0.8,0.7,1.6,1.2,2.4
			c0,0.2-0.1,0.4-0.1,0.6l-0.1-0.2l-0.3-0.5c0-0.3,0-0.5,0-0.5s-0.1,0.1-0.1,0.3C10,26.5,9.6,26,9.4,25.6c-0.1-0.3-0.3-0.6-0.5-1
			c0,0.4,0.1,0.7,0.3,1c0.3,0.6,0.6,1.2,1,1.8c-0.1,0.2-0.1,0.3-0.1,0.5c-0.2-0.3-0.4-0.6-0.6-0.9c-1.1-1.6-1.7-3.1-1.8-3
			c0.2,1.2,0.7,2.3,1.4,3.3l0.2,0.3l-0.1,0.2l0,0c0,0-0.1,0.1-0.1,0.2c-0.3-0.5-0.7-1-1-1.7c-1.2-2.1-1.9-3.9-2-3.9
			c0.4,1.4,0.9,2.8,1.7,4c0.4,0.7,0.8,1.4,1.3,2v0.1l-0.4-0.5c-1-1.3-1.8-2.8-2.5-4.3C5,20.9,4.1,18,3.6,15
			c-0.1-0.9-0.2-1.8-0.2-2.7c0,0.1,0,0.3,0,0.5c0,0.4,0.1,0.8,0.2,1.2l-0.2-0.2c0,0.3,0.1,0.7,0.2,1c0.2,0.4,0.4,0.9,0.8,1.2
			C5.2,17.2,6,18.2,7,19.1c1.3,1.2,2.8,2.2,4.4,3.1c2.8,1.5,5.8,2.7,8.8,3.8l0.7,0.2v0l0,0l0,0c0,0,0.1,0.1,0,0.1s0,0-0.2-0.1
			c-0.3-0.2-0.5-0.3-0.5-0.2s0.1,0.1,0.4,0.4c0.3,0.2,0.5,0.4,0.8,0.6l0.5,0.3l0.3,0.2c-0.3,0-0.7,0.1-1,0.2c-0.1-0.4-0.4-0.8-0.8-1
			c-0.3-0.3-0.7-0.5-1.1-0.6c0,0.1,0.4,0.4,0.9,0.9s0.8,0.7,0.9,0.8c-0.5,0.1-0.9,0.2-1.4,0.4c-0.1-0.3-0.3-0.6-0.5-0.8
			c0-0.1,0-0.2,0-0.3c0.1,0.1,0.2,0.2,0.3,0.3c0,0.1-0.1,0.2,0,0.2c0,0.2,0.1,0.4,0.2,0.4s0.2-0.1,0.2-0.4v0
			c0.2,0.1,0.4,0.2,0.4,0.2s-0.4-0.5-0.9-1s-0.9-1-1-0.9s0.2,0.5,0.6,1c0,0.1,0,0.2-0.1,0.3c-0.5-0.5-1-0.9-1-0.8s0.2,0.4,0.6,0.8
			c-0.1,0.1-0.1,0.1-0.1,0.2L18,26.7c-0.5-0.5-0.9-1-0.9-0.9s0.2,0.6,0.7,1.1c0.1,0.2,0.3,0.3,0.4,0.5c0,0.4,0,0.6,0.1,0.6
			s0.1-0.1,0.1-0.3c0.1,0.1,0.2,0.2,0.3,0.2s0-0.2-0.2-0.5c0-0.1,0-0.3,0-0.4l0.1,0.1c0,0,0.1,0.1,0.1,0.1c-0.1,0.4,0,0.8,0.1,0.8
			s0.1-0.2,0.2-0.5c0.2,0.2,0.4,0.4,0.5,0.5c-0.8,0.2-1.7,0.5-2.5,0.9c-0.1-0.1-0.3-0.4-0.5-0.6c0-0.1,0-0.2,0-0.4s0-0.1,0-0.1
			c0.1,0.1,0.2,0.2,0.4,0.3c0,0.1,0.1,0.2,0.1,0.2s0,0,0.1-0.1c0.2,0.1,0.4,0.1,0.4,0.1s-0.1-0.1-0.3-0.3c0-0.1,0-0.3,0-0.4
			s0-0.2,0-0.3l0.2,0.2l0,0c0,0.4,0,0.7,0.1,0.7s0.1-0.2,0.2-0.4c0.1,0.1,0.2,0.2,0.3,0.2s0-0.2-0.2-0.5c0-0.4,0.1-0.6,0-0.7
			s-0.1,0.1-0.2,0.3c-0.1-0.2-0.3-0.4-0.4-0.6c-0.6-0.7-1.1-1.2-1.2-1.1c0.3,0.5,0.6,0.9,1,1.3l0.2,0.2c-0.1,0.2-0.1,0.3-0.1,0.5
			v0.1l-0.3-0.3c0-0.3,0.1-0.4,0.1-0.5s-0.1,0.1-0.3,0.2L16.4,27c-0.6-0.8-1.1-1.4-1.2-1.3c0.2,0.6,0.5,1.1,0.9,1.5l0.2,0.2
			c0,0.1-0.1,0.2-0.1,0.4V28L16,27.5c0-0.3,0-0.5,0-0.5s-0.1,0.1-0.2,0.3c-0.3-0.5-0.7-1-1.2-1.4c0.2,0.7,0.6,1.3,1.1,1.8l0,0
			c0,0.1-0.1,0.2-0.1,0.4c-0.1-0.1-0.1-0.2-0.2-0.3s-0.1-0.3-0.1-0.3s0,0-0.1,0.1L15,27.1c-0.4-0.7-0.9-1.3-1.5-1.8
			c0.3,0.7,0.8,1.3,1.3,2v0l0,0c0,0-0.1,0.1-0.2,0.3c-0.2-0.2-0.4-0.5-0.6-0.8c-0.5-0.8-1.2-1.5-1.9-2.2c0.5,0.8,1.1,1.6,1.7,2.3
			l0.3,0.3C14,27.4,14,27.5,14,27.6l-0.2-0.3c-0.6-0.8-1.2-1.5-1.9-2.2c0.4,0.9,1,1.7,1.6,2.4l0,0c-0.1,0.1-0.1,0.2-0.2,0.4
			c-0.1-0.1-0.1-0.1-0.2-0.2c-0.5-0.8-1.1-1.6-1.8-2.4c0.3,0.8,0.7,1.6,1.3,2.2c-0.1,0.2-0.1,0.3-0.2,0.5L12.4,28z M13.1,30.2
			l-0.4-0.7c0-0.2,0-0.4,0-0.6c0,0,0-0.1,0-0.1l0.4,0.5C13,29.6,13.1,29.9,13.1,30.2L13.1,30.2z M12.7,28.4c0-0.2,0.1-0.5,0.1-0.6
			l0.1,0.1l0.3,0.4c0,0.2-0.1,0.4-0.1,0.6C13,28.8,12.9,28.6,12.7,28.4L12.7,28.4z M12.6,30.6l-0.1-0.1c0-0.2,0.1-0.3,0.1-0.5
			c0.2,0.3,0.3,0.5,0.5,0.7L12.6,30.6z M13.1,32.5c0.3,0.3,1,0.8,1.7,1.4c0.6,0.6,1.2,1,1.9,1.5c-0.5-0.7-1-1.3-1.7-1.7
			c-0.6-0.5-1.2-0.9-1.8-1.2l0.4-0.3c0.3,0.3,0.8,0.8,1.4,1.4c0.6,0.7,1.2,1.3,1.9,1.8c-0.4-0.8-1-1.5-1.7-2.1
			c-0.5-0.5-0.9-0.9-1.4-1.3H14c0.2-0.1,0.4-0.2,0.6-0.3c0.4,0.6,0.8,1.2,1.3,1.7c0.5,0.6,1.1,1.1,1.6,1.6l-0.6,0.4h-0.3h-0.8
			c-0.4,0-0.7,0-1,0c-0.1-0.2-0.4-0.4-0.6-0.6c0.3,0,0.6,0.1,0.8,0.2c0.2,0.1,0.3,0.1,0.5,0.2l-0.2-0.1l0,0c-0.4-0.5-0.8-1-1.3-1.3
			c-0.4-0.3-0.8-0.7-1.2-1L13.1,32.5z M12.6,32.9c0.3,0.3,0.7,0.6,1.2,1.1c0.4,0.4,0.8,0.7,1.3,1c-0.3-0.1-0.7-0.2-1-0.3l-0.6-0.5
			c-0.5-0.4-0.9-0.8-1.3-1L12.6,32.9z M12,33.3c0.3,0.3,0.7,0.7,1.2,1.1l0.3,0.3c-0.3,0-0.5,0.1-0.7,0.2l-0.5-0.4
			c-0.3-0.3-0.6-0.6-0.9-0.8L12,33.3z M11.4,33.8c0.3,0.3,0.5,0.6,0.8,0.9l0.4,0.3l-0.2,0.1c-0.3-0.2-0.6-0.5-0.9-0.7
			c-0.1-0.1-0.2-0.2-0.3-0.4L11.4,33.8z M12.3,35.7h-0.2l0.2-0.1L12.3,35.7z M10.9,34.2c0.1,0.1,0.2,0.3,0.3,0.4
			c0.3,0.3,0.5,0.5,0.9,0.6l0,0c-0.2,0.1-0.4,0.2-0.5,0.4l0,0c-0.2-0.2-0.4-0.4-0.6-0.6l-0.5-0.4L10.9,34.2z M9.4,36.5l-0.6,0.3
			c-0.1,0-0.2,0.1-0.3,0.2c-0.1,0-0.1,0.1-0.2,0.1c0,0.1,0-0.1,0.1-0.1s0.1-0.1,0.1-0.2c0.1-0.1,0.1-0.2,0.2-0.3l0.1-0.1l0.1-0.1
			c0.1,0,0.1,0.1,0.2,0.1c0.2,0,0.3,0,0.5,0L9.4,36.5z M9.8,36.3L9.8,36.3c0.1-0.1-0.3-0.2-0.6-0.3H9.1l0.1-0.2
			c0.1-0.1,0.2-0.2,0.3-0.3L10,36l0.2,0.2L9.8,36.3z M10.2,35.8c-0.2-0.1-0.3-0.2-0.5-0.3c0.2-0.2,0.4-0.4,0.6-0.6
			c0.1,0.2,0.3,0.3,0.5,0.4c0.2,0.2,0.5,0.3,0.7,0.5l-0.1,0.1h-0.1c-0.3,0-0.5,0.1-0.8,0.2C10.4,36,10.3,35.9,10.2,35.8z M7.5,60.3
			c-0.1-0.1-0.2-0.1-0.3-0.2c0.1-0.2,0.1-0.4,0.2-0.6l0.2,0.3l0.2,0.3L7.5,60.3z M8.1,59.9l-0.3-0.3c-0.1-0.2-0.2-0.3-0.4-0.4
			l0.1-0.3c0.1,0.2,0.3,0.3,0.4,0.5c0.2,0.2,0.3,0.3,0.4,0.5L8.1,59.9z M8.6,59.7c-0.1-0.2-0.3-0.4-0.4-0.6
			c-0.2-0.2-0.4-0.5-0.5-0.6l0.1-0.3c0,0,0-0.1,0-0.1l0.4,0.6C8.5,59,8.7,59.3,9,59.5L8.6,59.7z M9.2,59.4c-0.2-0.4-0.5-0.7-0.7-1
			c-0.2-0.2-0.4-0.5-0.6-0.7v-0.1c0.2,0.2,0.4,0.5,0.7,0.8c0.3,0.3,0.6,0.6,0.9,0.9L9.2,59.4z M9.8,59.2c-0.2-0.2-0.6-0.6-0.9-1
			c-0.3-0.3-0.6-0.6-0.9-0.9C7.9,57.2,8,57.1,8,57c0.3,0.4,0.6,0.8,1,1.2c0.4,0.4,0.7,0.8,1,1L9.8,59.2z M10.2,59.1
			c-0.3-0.4-0.6-0.8-0.9-1.2c-0.4-0.4-0.8-0.8-1.2-1.1c0,0,0-0.1,0-0.1L8.6,57c0.2,0.3,0.5,0.6,0.9,0.9c0.4,0.4,0.9,0.7,1.3,0.9
			L10.2,59.1z M10.9,58.8c-0.3-0.4-0.7-0.7-1.1-1c0.1,0.1,0.2,0.2,0.4,0.2c0.4,0.2,0.8,0.4,1.3,0.4l0,0c0.1,0,0.3,0.1,0.4,0.1
			L10.9,58.8z M19,56.7c-1.1,0.4-2.2,0.7-3.4,0.8c0.3-0.2,0.6-0.5,0.9-0.7l-0.3,0.1c-0.2-0.2-0.4-0.4-0.6-0.5c0,0-0.1-0.1-0.1-0.1
			l0,0c0,0-0.4-0.3-1-0.5l-0.3-0.1l-0.1-0.1c-0.3-0.3-0.6-0.5-0.6-0.4s0,0.1,0.1,0.2s-0.1,0-0.1,0s0.2,0.3,0.6,0.5
			c0.1,0.1,0.3,0.2,0.5,0.2l0.5,0.2c0.2,0.1,0.3,0.3,0.5,0.4c0.2,0.1,0.4,0.3,0.6,0.3l-0.6,0.3l-0.1-0.1c-0.2-0.1-0.4-0.2-0.4-0.2
			s0,0.3,0.2,0.4l-0.4,0.2h-0.1c-0.3-0.3-0.7-0.6-1.1-0.9c-0.4-0.3-0.9-0.6-1.3-0.8c-0.1,0.1,0.4,0.6,1.2,1.1c0.4,0.3,0.8,0.5,1,0.6
			c-0.9,0-1.9-0.2-2.8-0.5c-0.3-0.1-0.5-0.2-0.8-0.3c-0.3-0.2-0.6-0.5-1-0.8c-0.7-0.5-1.4-1-2.2-1.3c0,0.1,0.4,0.5,1.2,1L7.4,55
			c-0.7-0.5-1.5-0.8-2.3-1.2c-0.4-0.2-0.9-0.3-1.3-0.4H3.5h0l0.1-0.2c0.2-0.4,0.4-0.8,0.6-1.2c0.4-0.8,0.7-1.5,1-2.3
			c0.6-1.5,1.2-3,1.7-4.3c0.9-2.4,1.9-4.8,3.2-7.1l0.1-0.1c0,0,0.1,0,0.1,0c0,0,0-0.1,0-0.2c0.1,0.1,0.1,0.2,0.2,0.2s0.2-0.2,0-0.4
			l0,0l0.1-0.2c0.1,0.2,0.2,0.3,0.4,0.4c0.4,0.3,0.7,0.3,0.8,0.2s-0.3-0.3-0.6-0.5c-0.1-0.1-0.3-0.2-0.4-0.3
			c0.2-0.3,0.4-0.6,0.7-0.9h0.1h0.1c0.2,0.3,0.3,0.5,0.6,0.8c0.4,0.5,0.8,0.8,0.8,0.7s-0.2-0.5-0.6-0.9c-0.2-0.2-0.4-0.5-0.6-0.6
			l0.4-0.1l0.2,0.3c0.2,0.3,0.5,0.6,0.8,0.9c-0.1,0.2-0.1,0.4-0.1,0.6c0,0.4-0.1,0.8,0,0.8s0.3-0.3,0.3-0.7c0,0,0,0,0.1,0
			s0.2-0.2,0.3-0.5l0,0c0,0.3,0,0.5,0.1,0.5s0.2-0.3,0.3-0.7c0,0,0,0,0-0.1c0,0,0.1,0,0.1,0s0-0.1-0.1-0.2s0-0.2,0.1-0.2
			c0.1,0.1,0.2,0.2,0.3,0.2s-0.1-0.5-0.5-0.9l0,0c0.1,0.1,0.1,0.1,0.2,0.2c0.2,0.2,0.4,0.2,0.7,0.3v0c0,0.2-0.1,0.4,0,0.5h0.1
			l-0.3,0.2c0-0.1-0.1-0.2-0.2-0.2s-0.2,0.1-0.2,0.3c0,0.1,0,0.1,0.1,0.2l-0.4,0.4c-0.4,0.4-0.9,0.8-1.3,1.3
			c0.1-0.1,0.1-0.2,0.1-0.3v-0.1l0,0c0-0.3,0-0.5-0.1-0.5s-0.2,0.2-0.2,0.5c0,0,0,0.1,0,0.1l-0.6,0.3c-0.7,0.3-1.4,0.8-1.9,1.4
			c-0.5,0.6-0.9,1.3-1.1,2.1c-0.1,0.3-0.1,0.7-0.1,1l0.6-0.8l1.5-1.6l0.2-0.2c-0.5,0.7-1,1.4-1.4,2.1c-1,1.6-1.9,3.3-2.6,5
			c-0.6,1.6-1.1,3.2-1.5,4.9l0.1-0.2c1.7,0.1,3.3,0.1,5,0c4.1-0.1,8.1-0.9,11.9-2.3c1.1-0.4,2.2-0.9,3.2-1.5
			c0.9-0.5,1.8-1.1,2.7-1.8l0.2-0.2c0.2,0.2,0.3,0.5,0.6,0.7l0.1,0.1c-0.6,0.6-1.3,0.9-1.3,1s0.3,0,0.6-0.2c0.2-0.1,0.4-0.2,0.6-0.4
			l0.2-0.2l0.2,0.2c-0.2,0.1-0.3,0.2-0.5,0.3c0.1-0.2,0.2-0.3,0.1-0.3s-0.5,0.3-1,0.8c-0.6-0.4-1.1-0.6-1.1-0.6s0.4,0.4,0.9,0.8
			L28,50l-0.1,0.2L27.5,50l0,0c-0.6-0.4-1.1-0.8-1.1-0.7s0.3,0.5,0.9,0.9L27,50.4c-0.4-0.3-0.9-0.6-1.3-0.9
			c-0.1,0.1,0.4,0.6,1.1,1.1c-0.1,0.1-0.3,0.2-0.4,0.4c-0.6-0.4-1.1-0.6-1.1-0.5s0.3,0.4,0.8,0.7l-0.5,0.3l-0.3-0.3c0,0,0-0.1,0-0.1
			s-0.1,0-0.1,0c-0.2-0.2-0.3-0.3-0.3-0.2s0,0.1,0.1,0.3c-0.2,0.1-0.6,0.2-1,0.3c-0.7,0.3-1.3,0.5-1.3,0.5c0.5,0.1,1,0,1.4-0.2
			c0.4-0.1,0.7-0.3,1-0.5l0.2,0.3L24.6,52c-0.1-0.1-0.2-0.2-0.3-0.2s0,0.1,0,0.2s0,0,0,0.1c-0.9,0.5-1.8,0.9-2.7,1.2l-0.9,0.3
			l-0.4,0.1L20,53.9l0,0l0,0h-0.1h-0.4c-0.2,0-0.3,0,0-0.1l0.7-0.4c0.3-0.2,0.6-0.4,0.9-0.7c0.5-0.4,0.7-0.7,0.7-0.7
			s-0.3,0.2-0.8,0.5c-0.3,0.2-0.7,0.3-1,0.4L19.7,53l-0.2,0.1c-0.2,0.1-0.3,0.1-0.5,0.2l-0.3,0.1h-0.2h-0.1h-2.1l-1.2-0.1
			c0.2,0.5,0,0.6-0.2,0.7c-0.2,0.1-0.5,0.1-0.7,0l-0.2,0l0,0l0.1,0.1l0.2,0.1c0.3,0.2,0.5,0.4,0.7,0.5c0.4,0.3,0.9,0.5,1.4,0.6
			c0.1,0.1,0.2,0.3,0.3,0.4h-0.1c0,0,0.1,0.2,0.3,0.3l0,0L17,56c0.4,0.4,0.9,0.6,0.9,0.5s0-0.1-0.1-0.2c0.4,0.2,0.8,0.2,1.3,0.2
			c0-0.1-0.5-0.3-1.1-0.5c-0.1-0.1-0.3-0.2-0.4-0.2h0c0.2,0,0.4,0.1,0.4,0l0.5,0.2c0,0-0.1,0-0.1,0.1s0.4,0.2,1,0.1
			c0.2,0,0.4-0.1,0.6-0.2c0.1,0,0.2,0.1,0.4,0.1C19.9,56.4,19.5,56.5,19,56.7z M27.6,50.5l-0.2,0.3l-0.2-0.1
			c0.1-0.1,0.1-0.2,0.2-0.3L27.6,50.5z M27.1,51c-0.1,0.1-0.2,0.3-0.4,0.4l-0.3-0.1c0.1-0.1,0.3-0.2,0.4-0.4L27.1,51z M23.8,53.4
			L23.8,53.4l0.5-0.4c0.1,0,0.3,0.1,0.5,0.2c0.1,0,0.1,0,0.2,0.1l-0.6,0.5L23.8,53.4z M24,53.9L23.9,54l-0.5-0.2l-0.2-0.1l0.2-0.1
			l0.2,0.1C23.8,53.8,23.9,53.8,24,53.9L24,53.9z M17.2,55.8L17.2,55.8L17.2,55.8z M17.1,55.4c-0.1,0-0.2,0-0.3,0l0,0H17.1
			L17.1,55.4z M21.6,55.4h-0.4c-0.6,0-1-0.1-1,0s0.4,0.3,0.9,0.3L20.7,56l-0.5-0.1l0,0c0,0-0.2,0-0.4,0s-0.3,0-0.3,0l0,0h-0.3h-0.4
			c-0.2-0.1-0.6-0.3-1.1-0.5h0c0.1,0,0.2,0,0.4,0c0.5,0,1-0.1,1.5-0.2c0.4,0.1,0.6,0,0.6-0.1s0,0,0,0h0.1l0.3-0.1l0.5-0.2l0,0
			c0.4,0.1,0.7,0.2,1.1,0.3h0.1C22.1,55.2,21.9,55.3,21.6,55.4L21.6,55.4z M22.6,55.2c0.1,0,0.1-0.1,0.2-0.2H23L22.6,55.2z M23,54.4
			c-0.5,0-0.9-0.1-0.9,0s0.2,0.2,0.6,0.3h-0.5l-0.8-0.1l0.5-0.3c0.4-0.2,0.7-0.4,1-0.5c0.1,0.1,0.2,0.1,0.4,0.2l0.3,0.1l-0.5,0.3
			L23,54.4z M23.2,54.8L23.2,54.8z M23.6,54.5h-0.2l0.3-0.2l0.1-0.1c0.2,0,0.3,0,0.3,0L23.6,54.5z M24.2,54.2c0,0,0-0.1-0.1-0.1
			l0.1-0.1l0.3,0.1L24.2,54.2z M24.6,53.9c-0.1-0.1-0.1-0.1-0.2-0.2l0.6-0.5l0.3,0.2L24.6,53.9z M25.5,53.3
			c-0.1-0.1-0.2-0.2-0.3-0.3c0,0,0.1-0.1,0.1-0.1s0,0-0.1,0c-0.1-0.1-0.2-0.1-0.3-0.2c-0.1-0.1-0.2-0.1-0.3-0.1l0.2-0.2l0.1-0.1
			c0.1,0.1,0.3,0.2,0.5,0.3c0.1,0.1,0.3,0.1,0.4,0.2L25.5,53.3z M26,52.9l-0.5-0.3l-0.4-0.2l0,0l0,0l0.4-0.3l0.2,0.1
			c0.3,0.2,0.6,0.3,1,0.3L26,52.9z M26.9,52.2c-0.4-0.1-0.7-0.2-1-0.4h-0.1l0.2-0.2l0.3-0.2l0,0c0.3,0.2,0.7,0.4,1.1,0.5L26.9,52.2z
			 M27.5,51.7L27.5,51.7l-0.6-0.3c0.1-0.1,0.3-0.1,0.4-0.2l0,0c0,0,0.1,0,0.3,0l0.5,0.2L27.5,51.7z M30.1,56.1
			c-0.1-0.2-0.3-0.3-0.4-0.5s-0.4-0.6-0.5-0.8l0.1,0.1c0.4,0.3,0.8,0.6,1.3,0.9l0,0L30.1,56.1z M30.7,55.6c-0.1-0.2-0.3-0.5-0.4-0.7
			l-0.1-0.1l0.9,0.6C31.1,55.5,31,55.6,30.7,55.6L30.7,55.6z M31.7,54.9c-0.1-0.2-0.3-0.5-0.5-0.7l-0.2-0.4c0.3,0.3,0.7,0.5,1.1,0.8
			L31.7,54.9z M32.4,54.4c-0.1-0.2-0.3-0.5-0.4-0.8l0-0.2c0.3,0.3,0.6,0.5,0.9,0.7L32.4,54.4z M33.1,53.7c0-0.1-0.1-0.2-0.2-0.4
			l0.3,0.2L33.1,53.7z M33.6,53.3c-0.2-0.2-0.3-0.5-0.6-0.7s-0.3-0.3-0.4-0.5l0.1,0.1L34,53l0,0C33.9,53.1,33.8,53.2,33.6,53.3
			L33.6,53.3z M34.5,52.4l-0.3-0.5L34,51.7c0.3,0.2,0.5,0.4,0.6,0.5L34.5,52.4z M34.7,52.1c-0.3-0.4-0.7-0.8-1.1-1.2
			c-0.4-0.5-1-0.9-1.5-1.1c0.4,0.5,0.8,0.9,1.2,1.2c0.2,0.3,0.4,0.7,0.7,1.1c0.1,0.2,0.3,0.4,0.4,0.6l-0.2,0.2
			c-0.1-0.2-0.3-0.5-0.5-0.7c-0.5-0.8-0.8-1.4-0.9-1.4c0.1,0.5,0.3,1.1,0.7,1.5L33.1,52c-0.5-0.4-1-0.8-1.6-1c0,0,0.3,0.3,0.7,0.7
			c0.2,0.4,0.4,0.8,0.8,1.1c0.2,0.3,0.4,0.5,0.6,0.7c-0.3-0.2-0.6-0.5-1-0.9c-0.5-0.7-0.9-1.2-1-1.2s0,0.2,0.2,0.5
			c-0.3-0.3-0.6-0.5-1-0.8c0.4,0.6,0.9,1.2,1.5,1.6h0.1v0.1c0.3,0.4,0.5,0.8,0.7,1L33,54c-0.4-0.4-0.8-0.8-1.2-1.2
			c-0.6-0.5-1.2-0.9-1.9-1.2c0.5,0.5,1,0.9,1.6,1.3c0.1,0.3,0.2,0.6,0.4,0.8c0.1,0.2,0.2,0.3,0.3,0.4l-0.8-0.7
			c-0.2-0.2-0.4-0.3-0.6-0.5V53c-0.2-0.3-0.3-0.5-0.3-0.5s0,0.1,0,0.3c-0.4-0.3-0.7-0.5-0.8-0.5s0.4,0.5,0.9,1
			c0.1,0.4,0.3,0.7,0.5,1c-0.4-0.4-0.9-0.8-1.5-1c0.4,0.5,0.8,0.9,1.3,1.3c0.3,0.2,0.5,0.4,0.7,0.6l-0.1,0.1
			c-0.3-0.2-0.6-0.4-0.9-0.6c0-0.1-0.1-0.3-0.1-0.4c-0.1-0.2-0.3-0.4-0.4-0.4s0,0.2,0.1,0.5l0,0c-1-0.6-1.8-1-2.1-1.2l0.5-0.3
			c1.5-1.2,2.9-2.6,4.1-4.2c0.4,0.5,0.8,0.9,1.3,1.3l0.1,0.1c0.1,0.4,0.3,0.8,0.5,1.2c0.2,0.3,0.4,0.5,0.6,0.7L34.7,52.1z M35,51.7
			c-0.1-0.2-0.3-0.4-0.5-0.7l-0.3-0.5c0.3,0.4,0.7,0.6,1.1,0.9L35,51.7z M35.5,51.2c-0.1-0.3-0.2-0.6-0.4-0.9
			c-0.1-0.2-0.2-0.3-0.2-0.5l0.2,0.2l0,0c0.2,0.3,0.4,0.6,0.6,0.9L35.5,51.2z M35.8,50.7c-0.1-0.1-0.2-0.3-0.2-0.5
			c0.1,0,0.2,0,0.2,0s-0.1-0.2-0.4-0.3l0,0c-0.2-0.3-0.3-0.6-0.5-0.8c0.1,0.1,0.3,0.2,0.4,0.3l0,0c0.2,0.4,0.5,0.7,0.8,1L35.8,50.7z
			 M36.2,50.2L36,49.8c0.1,0.1,0.3,0.1,0.4,0.2L36.2,50.2z M36.6,49.5c-0.1-0.2-0.2-0.4-0.3-0.6c0.2,0.2,0.3,0.3,0.5,0.3L36.6,49.5z
			 M37.6,47.7c-0.2-0.2-0.3-0.4-0.5-0.6c-0.1-0.2-0.2-0.4-0.3-0.6l-0.2-0.4c0.3,0.3,0.6,0.5,0.9,0.8c0.2,0.2,0.3,0.3,0.3,0.3
			s0,0,0-0.1h0.1C37.8,47.3,37.7,47.6,37.6,47.7L37.6,47.7z M38,47l-0.2-0.2l0,0l-0.3-0.7c0.2,0.2,0.5,0.4,0.8,0.5L38,47z
			 M38.2,46.5l-1-1l-0.3-0.3c-0.2-0.4-0.4-0.6-0.4-0.6s0,0.1,0,0.2c-0.3-0.3-0.6-0.4-0.6-0.4s0.3,0.5,0.8,1c0.1,0.2,0.2,0.4,0.3,0.6
			l0,0.1l-0.3-0.3c-0.4-0.5-1-1-1.5-1.4c0.2,0.4,0.5,0.8,0.8,1.2c0.1,0.3,0.3,0.7,0.4,1l-0.1-0.1c-0.5-0.5-1-0.9-1.6-1.3
			c0.4,0.6,0.9,1.1,1.4,1.5l0.8,0.7c0.3,0.5,0.6,0.8,0.6,0.8s0-0.2-0.1-0.4c0.1,0.1,0.1,0.1,0.2,0.1c0,0.1-0.1,0.2-0.1,0.2
			c0,0,0,0.1,0,0.1c-0.2,0.3-0.3,0.6-0.5,0.9c-0.3-0.4-0.6-0.7-1-1c-0.4-0.7-0.9-1.1-0.9-1.1s0,0.2,0.2,0.4c-0.4-0.4-0.8-0.7-1.2-1
			c0.4,0.6,0.9,1.1,1.4,1.5l0.3,0.3l0.1,0.2c0.2,0.4,0.5,0.8,0.8,1.2c0,0.1-0.1,0.1-0.1,0.2c-0.1-0.1-0.5-0.4-0.8-0.7
			c-0.2-0.5-0.5-0.9-0.8-1.3c0,0,0,0.3,0.1,0.7c-0.4-0.5-0.8-0.9-1.3-1.4c0.2,0.6,0.5,1.1,0.9,1.5c0,0.3,0.1,0.5,0.2,0.7l-0.3-0.3
			c-0.7-0.6-1.3-1.1-1.3-1s0.4,0.7,1.1,1.3l0.1,0.1c0.1,0.3,0.2,0.6,0.4,0.9c0.2,0.3,0.3,0.6,0.5,0.9l-0.1,0.1
			c-0.4-0.6-0.9-1.2-1.4-1.6c-0.5-0.5-1-0.9-1.5-1.3c1-1.3,1.8-2.7,2.4-4.2c0.3-0.8,0.6-1.6,0.7-2.5l0.8,0.9l0.4,0.4l0.2,0.3
			c0.1,0.1,0.2,0.3,0.3,0.4c-0.3-0.4-0.7-0.7-1.2-1c-0.1-0.2-0.2-0.3-0.2-0.3c0.1,0.5,0.2,0.9,0.5,1.3c-0.3-0.2-0.5-0.4-0.5-0.3
			s0.3,0.5,0.9,1.1c0.5,1,1.2,1.6,1.3,1.5c-0.1-0.3-0.3-0.5-0.4-0.7c0.2,0.2,0.5,0.4,0.7,0.6C38.3,46.2,38.2,46.3,38.2,46.5
			L38.2,46.5z M38.4,45.9c-0.3-0.5-0.7-0.9-1.1-1.3L37,44.5l-0.1-0.1l-0.5-1c0.2,0.2,0.4,0.5,0.6,0.7c0.6,0.6,1,1.2,1.1,1.1l0,0
			l0.1,0.2l0.2,0.3C38.5,45.7,38.4,45.8,38.4,45.9L38.4,45.9z M38.9,44.6c0-0.1,0-0.2,0-0.3c0.1,0.3,0.2,0.5,0.2,0.6
			C39,44.8,39,44.7,38.9,44.6L38.9,44.6z M45.3,50.7c-0.1-0.3-0.3-0.6-0.5-0.9c-0.2-0.6-0.5-1.1-0.9-1.6c0.1,0.6,0.3,1.2,0.6,1.8
			c0.1,0.2,0.1,0.3,0.2,0.5l-0.2-0.1l-0.2-0.4c-0.2-0.6-0.6-1.2-1.1-1.7c0.2,0.6,0.5,1.2,0.8,1.7l-0.7-0.5c-0.2-0.6-0.5-1.1-0.8-1.7
			c0,0.4,0.1,0.9,0.3,1.3l-0.4-0.3c-0.2-0.8-0.5-1.6-0.9-2.4c0,0.7,0.2,1.4,0.4,2l-0.2-0.2c-0.1-0.3-0.2-0.7-0.3-1.1
			c-0.2-1-0.5-2-0.9-3c0.1,1,0.3,2.1,0.6,3.1c0,0.2,0.1,0.4,0.2,0.6L41,47.2c-0.1-0.5-0.3-1-0.4-1.6c-0.1-1-0.4-2.1-0.8-3
			c0.1,1.1,0.2,2.1,0.5,3.1c0.1,0.4,0.2,0.7,0.3,1.1c-0.2-0.2-0.3-0.4-0.5-0.6c-0.1-0.5-0.3-1.2-0.4-1.8c-0.1-1.1-0.4-2.1-0.8-3.1
			c0.1,1.1,0.2,2.1,0.5,3.2c0.1,0.5,0.2,0.9,0.3,1.3l-0.3-0.3c-0.1-0.8-0.3-1.6-0.5-2.4c-0.3-1.3-0.4-2.4-0.5-2.4
			c-0.2,0.8-0.1,1.7,0.1,2.5c0.1,0.4,0.2,0.8,0.3,1.2c0,0.1,0,0.2-0.1,0.3c-0.2-0.3-0.3-0.5-0.4-0.8s-0.2-1.1-0.4-1.9
			c0-0.1,0-0.2,0-0.3l0,0c0,0,0,0,0-0.1c-0.1-0.5-0.1-0.9-0.1-1.2c0,0,0.1,0,0.1,0s0-0.1-0.1-0.2s0-0.1,0-0.2s0,0,0,0
			c0.6,0.5,1.3,0.8,2.1,1c0.6,0.2,1.2,0.2,1.8,0.1c0,0.2-0.1,0.3-0.1,0.5v0.2l0,0c0,0,0,0.1,0,0.3c0,0.7,0.1,1.4,0.3,2
			c0.5,1.5,1.4,2.9,2.4,4c0.2,0.8,0.5,1.6,0.9,2.3c0.1,0.3,0.3,0.5,0.4,0.7L45.3,50.7z M46.3,51.3c-0.2-0.3-0.4-0.7-0.6-1.2
			c-0.4-0.8-0.8-1.6-1-1.9c0.2,0.3,0.5,0.5,0.7,0.8c0.2,0.7,0.5,1.3,0.9,1.9c0.2,0.3,0.3,0.5,0.5,0.7L46.3,51.3z M47.4,51.9
			l-0.8-1.2c-0.3-0.6-0.7-1.1-0.9-1.4c0.3,0.3,0.7,0.6,1.1,0.9l0,0c0.2,0.5,0.4,0.9,0.7,1.3c0.2,0.2,0.3,0.5,0.5,0.7L47.4,51.9z
			 M48.5,52.4c-0.2-0.3-0.4-0.6-0.7-1.1l-0.6-0.9L48,51c0.1,0.5,0.4,0.9,0.7,1.3l0.2,0.3L48.5,52.4z M54,53.5h0.4
			c-0.4,0.1-0.8,0.1-1.2,0.1c-1.3-0.1-2.6-0.4-3.8-0.9c-0.1-0.2-0.3-0.4-0.4-0.7l-0.7-0.9c0.5,0.3,0.9,0.6,1.4,0.8
			c0.1,0.2,0.2,0.4,0.3,0.5c0.3,0.4,0.8,0.6,0.8,0.5s-0.3-0.3-0.6-0.7v-0.1C51.4,52.9,52.6,53.3,54,53.5L54,53.5z M48.2,49
			c0.3,0.5,0.7,0.9,1.2,1.2c0.2,0.3,0.5,0.5,0.7,0.7c-0.9-0.5-1.7-1.1-2.5-1.8c-0.9-0.7-1.8-1.6-2.7-2.4l0,0c0-0.3-0.1-0.7-0.2-1
			c0.3,0.6,0.6,1,0.7,1s-0.1-0.3-0.2-0.6c0.1,0.1,0.1,0.2,0.2,0.3c0.2,0.4,0.4,0.6,0.4,0.6s0,0,0-0.1c0.4,0.4,0.7,0.6,0.7,0.6
			s0-0.3-0.2-0.7c0.1,0.2,0.2,0.3,0.4,0.5c0.1,0.2,0.2,0.4,0.3,0.6C47.4,48.3,47.8,48.7,48.2,49L48.2,49z M47.2,45.6L47.2,45.6
			L47.2,45.6C47.2,45.6,47.1,45.6,47.2,45.6L47.2,45.6z M47.4,45.8l0.2,0.1c0,0.1,0,0.1,0,0.2l-0.1-0.1C47.5,46,47.5,45.9,47.4,45.8
			L47.4,45.8z M54.6,46.4L54.6,46.4l0.2,0.1L54.6,46.4z M57.5,47.7c-0.7-0.2-1.4-0.6-2.1-0.9c-0.3-0.2-0.5-0.3-0.6-0.4l0.2-0.1
			c0.3,0.2,0.7,0.5,1.1,0.7c0.7,0.4,1.4,0.7,2.1,1l0,0L57.5,47.7z M55.4,46.2h0.1l0.3,0.2L55.4,46.2z M56.6,45.9l-0.5-0.1l0.4-0.2
			C56.6,45.7,56.6,45.8,56.6,45.9L56.6,45.9z M57.3,45.7C57.3,45.8,57.3,45.8,57.3,45.7L57.3,45.7c0,0.1,0,0.2,0.1,0.2l0.1,0.2
			l-0.2-0.1l0,0c0-0.1-0.1-0.2-0.2-0.3L57,45.7l-0.1-0.2h0.1L57.3,45.7z M57,45.4L57,45.4L57,45.4z M57.3,45.5l-0.2-0.2l0.3-0.2
			c0.1,0.2,0.2,0.4,0.3,0.6L57.3,45.5z M57.7,46.5l0.2,0.3l-0.4-0.2l-0.2-0.3h0.2L57.7,46.5z M56.8,46.2c0,0,0,0.1,0.1,0.1l-0.6-0.2
			l0.4,0.1L56.8,46.2z M56.5,45.6L56.5,45.6L56.5,45.6L56.5,45.6z M57.7,46.1L57.7,46.1l0.3,0.2l0.1,0.1
			C58,46.3,57.9,46.2,57.7,46.1L57.7,46.1z M58.5,47.1L58.5,47.1z M58.3,46L58.3,46c-0.2-0.3-0.5-0.6-0.8-0.9l0.4-0.2h0.1l0.2,0.3
			l0,0c0,0,0,0.1,0.1,0.1c0.1,0.3,0.3,0.5,0.5,0.8L58.3,46z M59.4,44.1l0.2-0.1l0.1,0.3L59.4,44.1z M59.7,44.6l0.2,0.1
			c0.1,0.2,0.2,0.4,0.4,0.7c-0.2-0.1-0.3-0.2-0.5-0.3c-0.2-0.2-0.3-0.4-0.4-0.6L59.7,44.6z M59.6,45.3L59.6,45.3l0.3,0.3l-0.5-0.3
			l-0.2-0.1L59,45L59.6,45.3z M60.1,46.1l0.2,0.3L59.7,46l-0.2-0.1c0,0,0-0.1,0-0.1C59.8,46,60,46.1,60.1,46.1L60.1,46.1z M59,45.7
			c-0.2-0.1-0.4-0.2-0.5-0.3l-0.1-0.1L59,45.7L59,45.7z M58.7,44.7C58.7,44.6,58.7,44.6,58.7,44.7l0.3-0.3c0.1,0.2,0.2,0.3,0.3,0.5
			C59.1,44.8,58.9,44.7,58.7,44.7L58.7,44.7z M58.7,45.2c-0.2-0.1-0.5-0.2-0.6-0.3l0,0l0.3-0.2l0.1,0.1L58.7,45.2z M59.4,47.6
			l-0.3-0.3c-0.1-0.2-0.3-0.4-0.4-0.6l0.3,0.1c0.2,0.4,0.5,0.7,0.6,0.9L59.4,47.6z M59.9,47.9c-0.1-0.2-0.3-0.5-0.5-0.8
			c0.2,0.1,0.3,0.1,0.3,0.1s-0.2-0.2-0.5-0.4L59,46.2l-0.2-0.4l0.5,0.3l0.1,0.1c0.4,0.7,0.8,1.3,1.3,1.9L59.9,47.9z M62.3,44.7
			c0.2,0.7,0.5,1.5,0.7,2.4c0.1,0.5,0.3,0.9,0.3,1.4c0,0.2,0.1,0.5,0.1,0.7l0,0L63,49c-0.7-0.2-1.4-0.4-2.1-0.7
			c-0.1-0.2-0.6-0.9-1.1-1.8c0.3,0.2,0.6,0.3,0.9,0.4c0.5,0.7,0.9,1,0.9,1s-0.2-0.4-0.5-0.8l0,0c0,0-0.1-0.1-0.2-0.2l-0.3-0.5
			c0.1,0,0.2,0,0.2,0s-0.1-0.2-0.4-0.3l-0.2-0.4c0,0,0,0,0-0.1c0.1,0.1,0.3,0.1,0.4,0.2c0.3,0.6,0.8,1.2,1.3,1.7
			c-0.3-0.8-0.7-1.5-1.2-2.1L60.4,45c0.1,0,0.2,0.1,0.2,0s-0.2-0.3-0.5-0.5c-0.1-0.2-0.3-0.4-0.4-0.6l0,0c0,0,0.1,0.1,0.2,0.1
			c0.1,0,0.2,0,0.3,0c0.1,0.2,0.3,0.5,0.5,0.7c0.3,0.6,0.7,1.1,1.2,1.5c-0.2-0.6-0.5-1.2-0.9-1.7c-0.2-0.3-0.4-0.7-0.6-0.9l0.4-0.2
			c0.1,0.2,0.3,0.5,0.4,0.7c0.5,0.7,0.9,1.2,1,1.2c-0.2-0.5-0.4-0.9-0.7-1.3L61,43.4c0.2-0.1,0.4-0.1,0.5-0.2l0,0
			c0.1,0.2,0.2,0.3,0.4,0.4L62.3,44.7z M63.8,41.6h-0.2c-0.3,0-0.5,0-0.8,0.1c-0.3-0.1-0.6-0.1-0.9-0.1c-0.2,0-0.4,0-0.7,0h-0.1l0,0
			v0.2l0,0h0.1c0.2,0,0.4,0,0.6,0c-0.7,0.2-1.5,0.5-2.2,0.8c-1.5,0.8-2.9,1.7-4.2,2.3c-2.3,1.3-5.1,1.5-7.5,0.4
			c-1.7-0.7-3.2-1.7-4.5-3L43.2,42c0-0.1-0.1-0.2-0.1-0.2s0,0,0,0.1c-0.5-0.5-0.8-0.8-1-1c0.2,0,0.4-0.1,0.6-0.1h0.1
			c0.1,0.4,0.2,0.7,0.5,1c0.5,0.6,1.1,0.9,1.1,0.8s-0.4-0.4-0.9-1c-0.2-0.3-0.4-0.5-0.5-0.8h0.1h0.3c0.5,0,1,0,1.5-0.1
			c0.6-0.1,1.3-0.3,1.9-0.5c0.8,0.8,1.8,1.4,2.8,1.8c0.3,0.1,0.6,0.2,0.8,0.3h-0.1c-0.3,0-0.5-0.1-0.6,0s0.2,0.3,0.5,0.4
			s0.6,0,0.6-0.1s0,0,0-0.1c0.4,0.1,0.8,0.1,1.2,0.1c0.2,0,0.4,0,0.6-0.1c0,0,0,0,0.1,0c0,0,0.1,0,0.1,0s0,0,0-0.1s0,0,0,0l0,0h0.2
			c0.2,0,0.5-0.1,0.5-0.2S53.4,42,53.1,42h-0.2c0,0-0.1,0.1-0.2,0.2c-0.2,0-0.4,0-0.6,0c-0.8-0.1-1.6-0.3-2.3-0.6
			c-1-0.4-2-0.9-2.9-1.5c1-0.4,2-0.8,3-1c0.3-0.1,0.7-0.2,1-0.3c0.3,0,0.7-0.1,1-0.1c0.7,0,1.3,0,1.9,0l0,0l0.3,0.2L54,38.6l2,0.1
			c0.4,0.3,0.7,0.5,0.7,0.4s-0.1-0.2-0.3-0.4h0.4h0.6h0l0,0l0,0l0,0h0.3h-0.3l-0.2-0.3l-0.2-0.2l0.3,0.2c0.2,0.2,0.4,0.3,0.6,0.5
			l0.1-0.1l0.3,0.1h0.1l0,0c-0.1,0.1-0.2,0.1-0.3,0.2c0.1,0,0.2-0.1,0.3-0.2l0,0c0.3,0.1,0.6,0.1,0.7,0s-0.1-0.2-0.3-0.3l0,0
			l0.1-0.1c0.3,0.2,0.5,0.3,0.6,0.2s0-0.1-0.1-0.2c0.1,0,0.2-0.1,0.2-0.2c0.1-0.2,0.1-0.3,0-0.5c-0.1-0.1-0.1-0.2-0.2-0.3
			c-0.1-0.1-0.3-0.2-0.3-0.1l0,0c-0.1-0.4-0.3-0.7-0.5-1c-0.5-0.6-1-1.1-1.6-1.6c-1.5-1.2-3.1-2.2-4.8-3.1c-0.9-0.5-1.9-1.1-2.9-1.6
			L48,29.3c-0.5-0.3-1-0.6-1.5-1c-1.7-1.2-3.5-2.1-5.5-2.6l0.2,0c0.1,0.1,0.2,0.1,0.2,0.1s0-0.1,0-0.2l0,0c0.2,0.1,0.5,0.1,0.7,0.2
			c0.2,0,0.5,0,0.7,0l0.2,0.1c0.2,0.2,0.4,0.4,0.6,0.5c0.5,0.4,1,0.6,1.1,0.5s-0.3-0.4-0.7-0.7c0.5,0.2,0.9,0.3,1.4,0.2
			C45,26.2,44.5,26.1,44,26l-0.8-0.3c0.1,0,0.2-0.1,0.1-0.1s-0.5,0-1.2-0.1H42c0.3-0.1,0.7-0.2,1-0.3c0.3,0.1,0.9,0.1,1.7,0.2
			c1,0.1,1.8,0.3,1.9,0.2c-0.5-0.4-1.2-0.6-1.8-0.5C44.5,25,44.2,25,44,25c0.9-0.2,1.8-0.3,2.7-0.4c0.1,0.1,0.2,0.1,0.3,0.1
			c0.5,0.2,1.1,0.3,1.7,0.4l0.9,0.1c0,0,0,0.1,0,0.1c0.1,0.2,0.3,0.4,0.5,0.5c0.5,0.2,0.9,0.2,0.9,0.1s-0.4-0.2-0.8-0.4
			c-0.2-0.1-0.3-0.2-0.5-0.3l0,0l0,0l0.8,0.2c1,0.3,2,0.5,3,0.6c-0.4-0.2-0.7-0.3-1.1-0.4c1.5,0.3,3,0.9,4.4,1.6
			c1.1,0.6,2,1.4,2.9,2.3c1,1,1.7,2.2,2.2,3.5c0.5,1.5,0.8,3,1,4.6c0.1,0.9,0.3,1.7,0.6,2.6c0.1,0.4,0.3,0.7,0.4,1.1
			c-0.1-0.1-0.3-0.2-0.5-0.3c-0.3-0.1-0.6-0.2-0.6-0.1l0,0c-0.1-0.1-0.3-0.1-0.5-0.1c-0.5,0-0.7,0.3-0.7,0.3s0.3,0,0.7,0
			s0.6,0.1,0.7,0c0.1,0.1,0.2,0.1,0.3,0.2c0.3,0.1,0.6,0.2,0.6,0.1c0,0,0,0,0,0L63.8,41.6L63.8,41.6L63.8,41.6z M59.4,38.3
			L59.4,38.3h-0.2h0c0,0,0-0.1,0-0.1L59.4,38.3z M59.3,37.6c0,0,0,0.1,0.1,0.2c0,0,0.1,0.1,0.1,0.2l-0.1-0.1l-0.1-0.1
			C59.3,37.7,59.3,37.7,59.3,37.6L59.3,37.6z"/>
		<path class="st0" d="M47.2,28.1c-0.3-0.2-0.6-0.3-0.7-0.2s0.2,0.3,0.5,0.5s0.6,0.3,0.7,0.2S47.5,28.3,47.2,28.1z"/>
		<path class="st0" d="M47.5,27c0.1,0,0-0.3-0.3-0.3s-0.4,0-0.4,0.1s0.2,0.1,0.3,0.2S47.4,27.1,47.5,27z"/>
		<path class="st0" d="M47.6,26.2c-0.1-0.1-0.2-0.1-0.4-0.1c0,0-0.1,0-0.1,0.1c0,0,0,0.1,0,0.1l0,0l0,0c0,0.1,0.1,0.1,0.2,0.2
			s0.5,0.1,0.5,0.1S47.8,26.3,47.6,26.2z"/>
		<path class="st0" d="M47.5,25.5c-0.4,0-0.7,0-0.7,0.1s0.3,0.1,0.7,0.2s0.7,0.1,0.7,0S48,25.5,47.5,25.5z"/>
		<path class="st0" d="M45.8,26c-0.2,0-0.3,0-0.5,0.1c-0.1,0.1-0.1,0.2-0.1,0.2s0.3,0,0.6,0s0.5,0.1,0.6,0S46.1,26,45.8,26z"/>
		<path class="st0" d="M46.1,26.8c-0.1,0-0.2,0.1-0.2,0.2s0.1,0.2,0.2,0.2s0.2-0.1,0.2-0.2S46.2,26.8,46.1,26.8z"/>
		<path class="st0" d="M57.7,24c-0.4-0.5-0.8-0.9-1.2-1.4c-0.7-0.7-1.3-1.3-1.3-1.2c0.3,0.5,0.7,1,1.1,1.4
			C56.7,23.4,57.2,23.8,57.7,24z"/>
		<path class="st0" d="M64.5,26.5c-0.1,0.1,0.2,0.4,0.4,0.8s0.7,0.7,0.7,0.6s-0.2-0.4-0.4-0.8S64.5,26.5,64.5,26.5z"/>
		<path class="st0" d="M7.4,52.3c-0.6-0.2-1.1-0.1-1.1,0s0.5,0.2,1,0.3s1,0.3,1.1,0.2S8,52.5,7.4,52.3z"/>
		<path class="st0" d="M7.7,51.7c0,0.1,0.4,0.3,1,0.6s1.1,0.4,1.1,0.3s-0.4-0.3-1-0.6S7.7,51.6,7.7,51.7z"/>
		<path class="st0" d="M14.4,49.9c0.5,0.4,1.1,0.8,1.6,1.1c0.5,0.2,0.8,0.3,0.8,0.2c-0.2-0.2-0.4-0.3-0.7-0.4
			c-0.5-0.4-1.1-0.7-1.6-1.2c-0.7-0.6-1.4-1.2-2.2-1.7C12.9,48.7,13.6,49.3,14.4,49.9z"/>
		<path class="st0" d="M16.4,49.1c0.6,0.5,1.3,1,2,1.4c-0.5-0.6-1.1-1.2-1.8-1.6c-0.6-0.6-1.3-1-2-1.4
			C15.2,48.1,15.8,48.6,16.4,49.1z"/>
		<path class="st0" d="M23.6,46.1c-0.6-0.5-1.3-0.9-2-1.2c0.5,0.6,1.1,1.1,1.8,1.5c0.6,0.5,1.2,1,1.9,1.3
			C24.9,47.1,24.3,46.6,23.6,46.1z"/>
		<path class="st0" d="M24.3,45.4c-0.5-0.6-1.2-1.1-1.9-1.5c0.5,0.6,1,1.2,1.6,1.7c0.5,0.6,1.1,1.1,1.8,1.6
			C25.4,46.6,24.9,46,24.3,45.4z"/>
		<path class="st0" d="M24.9,45c-0.6-0.7-1.2-1.2-2-1.7c0.5,0.7,1.2,1.3,1.8,1.9c0.6,0.7,1.3,1.2,2.1,1.6C26.8,46.7,25.9,46,24.9,45
			z"/>
		<path class="st0" d="M25.5,44.1c0.5,0.6,1.1,1.1,1.8,1.5c-0.4-0.6-0.9-1.2-1.5-1.7c-0.5-0.6-1.1-1.1-1.7-1.5
			C24.4,43,24.9,43.6,25.5,44.1z"/>
		<path class="st0" d="M27.6,42.4c-0.7-0.6-1.4-1.1-2.2-1.4c0.6,0.6,1.3,1.2,2,1.7c0.7,0.6,1.4,1.1,2.1,1.5
			C29,43.6,28.3,42.9,27.6,42.4z"/>
		<path class="st0" d="M28.2,41.5c-1.3-1-2.3-1.8-2.3-1.7c0.6,0.8,1.3,1.5,2.1,2c1.3,1,2.3,1.8,2.3,1.7C29.7,42.7,29,42.1,28.2,41.5
			z"/>
		<path class="st0" d="M29.5,41.5c-0.5-0.5-1.1-1-1.7-1.3c0.4,0.6,1,1.1,1.5,1.5c0.5,0.5,1.1,1,1.8,1.3C30.5,42.5,30,42,29.5,41.5z"
			/>
		<path class="st0" d="M29.8,40.6c-0.6-0.6-1.3-1.1-2-1.5c0.5,0.7,1.1,1.3,1.9,1.8c0.6,0.6,1.4,1.1,2.1,1.5
			C31.1,41.7,30.5,41.1,29.8,40.6z"/>
		<path class="st0" d="M30.7,40c-0.6-0.6-1.3-1.2-2-1.6c0.5,0.7,1.1,1.3,1.8,1.8c0.6,0.6,1.2,1.2,1.9,1.7
			C31.9,41.2,31.3,40.6,30.7,40z"/>
		<path class="st0" d="M31,39.7c0.6,0.6,1.2,1.1,1.8,1.5c-0.4-0.7-1-1.3-1.6-1.8c-0.6-0.6-1.2-1.1-1.9-1.5
			C29.8,38.6,30.4,39.2,31,39.7z"/>
		<path class="st0" d="M17.5,33.1c0.5,0.7,1.1,1.1,1.2,1.1s-0.4-0.6-0.9-1.3s-1.1-1.1-1.2-1.1C16.8,32.4,17.1,32.8,17.5,33.1z"/>
		<path class="st0" d="M18.9,31.4c-0.1,0,0.1,0.5,0.6,1s1,0.7,1,0.6s-0.4-0.4-0.8-0.8S19,31.4,18.9,31.4z"/>
		<path class="st0" d="M29.2,30.4c-0.3-0.3-0.7-0.6-1.2-0.8c-0.1,0.1,0.4,0.6,1,1.1s1.2,0.9,1.3,0.8S29.8,30.9,29.2,30.4z"/>
		<path class="st0" d="M30.3,30.6c-0.4-0.2-0.6-0.4-0.7-0.3s0.2,0.4,0.6,0.6S31,31,31,30.9S30.7,30.8,30.3,30.6z"/>
		<path class="st0" d="M30.7,30.2c-0.1,0.1,0.2,0.4,0.5,0.9s0.8,0.6,0.9,0.5s-0.3-0.4-0.6-0.8S30.8,30.2,30.7,30.2z"/>
		<path class="st0" d="M11.7,56.3c-0.5-0.4-0.9-0.7-1-0.7s0.2,0.5,0.7,0.9l-0.8-0.6c-0.6-0.5-1.1-0.9-1.8-1.3
			c0.4,0.6,0.9,1.1,1.6,1.5c0.6,0.5,1.2,0.8,1.9,1c0,0-0.2-0.2-0.5-0.5c0.4,0.2,0.7,0.3,0.8,0.2S12.2,56.7,11.7,56.3z"/>
		<path class="st0" d="M28.4,48.9c0.1-0.1,0.1-0.2,0-0.2c-0.1-0.1-0.2-0.1-0.2,0c0,0,0,0,0,0c-0.1,0.1-0.1,0.2,0,0.2
			C28.2,48.9,28.3,48.9,28.4,48.9C28.4,48.9,28.4,48.9,28.4,48.9z"/>
		<path class="st0" d="M10.7,55.4c-0.1,0.1,0.4,0.5,0.9,0.8s1.1,0.6,1.1,0.6s-0.4-0.5-1-0.8S10.8,55.3,10.7,55.4z"/>
		<path class="st0" d="M11.9,55.4c-0.1,0.1,0.5,0.5,1.2,0.9c0.4,0.3,0.9,0.4,1.4,0.5c0,0,0-0.1-0.1-0.2c0.1,0,0.2,0,0.3,0
			c0.3,0.2,0.4,0.2,0.5,0.2s-0.1-0.3-0.4-0.5s-0.5-0.3-0.6-0.2s0,0.2,0.1,0.3l-0.2-0.1c-0.3-0.1-0.3-0.4-0.4-0.4s-0.1,0.1-0.1,0.2
			c0,0.1,0,0.1,0.1,0.2L13.2,56C12.8,55.7,12.4,55.5,11.9,55.4z"/>
		<path class="st0" d="M15.7,55.7c-0.1-0.1-0.3-0.2-0.4-0.2l-0.1-0.1c-0.3-0.2-0.6-0.3-0.7-0.2s0.2,0.3,0.5,0.5
			c0.1,0.1,0.3,0.2,0.4,0.2l0.2,0.1c0.5,0.3,1,0.5,1,0.4S16.2,56,15.7,55.7z"/>
		<path class="st0" d="M12.4,38.4c0.1,0,0-0.5-0.4-0.8s-0.7-0.6-0.8-0.5s0.2,0.4,0.5,0.8S12.3,38.4,12.4,38.4z"/>
		<path class="st0" d="M32.5,20.1c-0.6-0.6-1.3-1.2-2-1.7c0.5,0.7,1.1,1.4,1.8,1.9c0.6,0.6,1.3,1.2,1.9,1.8
			C33.8,21.3,33.2,20.7,32.5,20.1z"/>
		<path class="st0" d="M31.2,17.4c-0.4-0.3-0.6-0.5-0.7-0.5s0.8,0.9,1.7,2.1c0.4,0.5,0.8,1,1.3,1.4c0.4,0.3,0.6,0.5,0.7,0.5
			s-0.8-0.9-1.7-2.1C32.1,18.4,31.6,17.9,31.2,17.4z"/>
		<path class="st0" d="M30.3,15.4c0.6,0.8,1.2,1.5,1.8,2.2c0.6,0.8,1.2,1.5,1.9,2.2c-0.4-0.9-1-1.7-1.6-2.4
			C31.8,16.6,31.1,15.9,30.3,15.4z"/>
		<path class="st0" d="M30,14.4c0.5,0.8,1.2,1.5,1.9,2.1c1.1,1.1,1.8,2.1,1.8,2.1c-0.3-0.9-0.9-1.7-1.6-2.3
			C31.5,15.6,30.8,15,30,14.4z"/>
		<path class="st0" d="M30.3,13c0.4,0.9,1,1.6,1.6,2.3c0.6,0.7,1.2,1.4,1.9,2.1c-0.4-0.8-1-1.6-1.6-2.3C31.6,14.4,30.9,13.7,30.3,13
			z"/>
		<path class="st0" d="M29.6,11.2c0.4,0.9,0.9,1.7,1.6,2.4c0.6,0.8,1.3,1.4,2.1,2c-0.6-0.8-1.2-1.5-1.9-2.2
			C30.3,12.2,29.6,11.1,29.6,11.2z"/>
		<path class="st0" d="M32.4,13.3c-0.4-0.7-0.8-1.3-1.4-1.9c-0.5-0.6-1-1.2-1.7-1.6c0.4,0.6,0.9,1.2,1.4,1.8
			C31.2,12.2,31.8,12.8,32.4,13.3z"/>
		<path class="st0" d="M13.2,20.8c-0.4-0.4-0.9-0.8-1.5-1c0.4,0.5,0.8,0.9,1.3,1.2c0.4,0.4,0.9,0.8,1.5,1
			C14.1,21.6,13.7,21.2,13.2,20.8z"/>
		<path class="st0" d="M10.5,18.4c0.1,0.2,0.2,0.4,0.3,0.6c0.4,0.6,0.8,1.1,0.9,1c-0.1-0.4-0.3-0.9-0.6-1.2
			c-0.2-0.4-0.5-0.8-0.8-1.1c-0.1-0.4-0.4-0.9-0.6-1.5c-0.2-0.7-0.6-1.4-1.1-2c0.2,0.7,0.4,1.5,0.8,2.1C9.7,17.1,10,17.8,10.5,18.4z
			"/>
		<path class="st0" d="M9.8,14.2c0.1,0,0-0.4-0.2-0.7s-0.2-0.7-0.3-0.7s-0.2,0.4,0,0.8S9.7,14.2,9.8,14.2z"/>
		<path class="st0" d="M8.9,13.3c0-0.4-0.1-0.8-0.3-1.1c-0.3-0.6-0.6-1-0.7-0.9s0.2,0.5,0.4,1.1S8.8,13.3,8.9,13.3z"/>
		<path class="st0" d="M7.2,9.5c-0.1,0.1,0,0.2,0,0.5s0.1,0.5,0.2,0.5s0.2-0.2,0.1-0.5S7.3,9.5,7.2,9.5z"/>
		<path class="st0" d="M20.1,24.6c0.5,0.5,1.1,0.9,1.8,1.2c-0.4-0.6-1-1.1-1.6-1.5c-0.5-0.5-1.1-1-1.7-1.4
			C19,23.6,19.5,24.2,20.1,24.6z"/>
		<path class="st0" d="M15.6,21.2C15.5,21.2,15.5,21.2,15.6,21.2c-0.1,0-0.2,0-0.2,0c0,0-0.1,0-0.1,0.1s0.1,0.2,0.2,0.2
			s0.3,0,0.3-0.1S15.7,21.3,15.6,21.2z"/>
		<path class="st0" d="M17.5,20.9c0-0.1-0.4-0.3-0.9-0.8s-0.7-0.9-0.8-0.9s0,0.6,0.5,1.1S17.5,21,17.5,20.9z"/>
		<path class="st0" d="M12.5,17.4c0.4,0.4,0.7,0.8,0.8,0.7s-0.1-0.5-0.6-1s-1-0.5-1-0.4S12.1,17,12.5,17.4z"/>
		<path class="st0" d="M10.3,13.7c0.1-0.1,0.1-0.2,0-0.2s-0.2-0.1-0.2,0c-0.1,0.1-0.1,0.2,0,0.2C10.1,13.8,10.2,13.8,10.3,13.7z"/>
		<path class="st0" d="M20.2,22.9c-0.7-0.5-1-1-1.1-1s0.2,0.8,0.9,1.2c0.4,0.3,0.9,0.5,1.4,0.6C21.5,23.6,20.9,23.3,20.2,22.9z"/>
		<path class="st0" d="M18.9,22.6c0-0.1-0.6-0.3-1.3-0.6c-0.3-0.1-0.6-0.3-0.9-0.4c-0.1-0.1-0.2-0.2-0.4-0.4s-0.4-0.5-0.5-0.4
			s0,0.4,0.3,0.7c0.1,0.1,0.2,0.2,0.4,0.2c0.3,0.3,0.6,0.5,1,0.6C17.9,22.5,18.4,22.6,18.9,22.6z"/>
		<path class="st0" d="M23.1,24c-0.3,0-0.5,0.1-0.5,0.2s0.2,0.2,0.5,0.2s0.5-0.1,0.5-0.2S23.3,24,23.1,24z"/>
		<path class="st0" d="M23.7,23c-0.1-0.1-0.1-0.2-0.2-0.2s0,0.1,0,0.2c0,0,0,0.1,0,0.1l0,0l-0.1-0.1l0,0L23.4,23l0,0h-0.1
			c0,0-0.1,0,0-0.1c0,0,0.1,0,0.1,0l0,0h0l0,0c0,0,0.1-0.1,0-0.1s0,0,0,0l0,0c-0.3-0.2-0.5-0.3-0.8-0.4c-0.3-0.1-0.6-0.2-0.9-0.2
			l1,0.8l0.3,0.2l0.3,0.2l0.7,0.4c-0.2-0.1-0.5-0.3-0.8-0.5c-0.5-0.3-0.9-0.6-1-0.5s0.2,0.5,0.8,0.8s1.1,0.4,1.1,0.3s0-0.1-0.1-0.1
			l0.1,0.1l0.6,0.4c0.1,0,0,0,0.2,0.1C24.5,24,24.1,23.5,23.7,23z"/>
		<path class="st0" d="M20.8,22.1L20.8,22.1L20.8,22.1z"/>
		<path class="st0" d="M20.1,21.7L20.1,21.7L20.1,21.7z"/>
		<path class="st0" d="M20.7,22l0.1,0.1L20.7,22l-0.3-0.1c-0.1-0.1-0.2-0.1-0.3-0.2c0.1,0.1,0.1,0.1,0.2,0.2L20.7,22z"/>
		<path class="st0" d="M20.1,21.2L20.1,21.2C20.1,21.2,20.1,21.2,20.1,21.2z"/>
		<polygon class="st0" points="20.7,21.9 20.8,22 20.8,22 20.8,22 		"/>
		<path class="st0" d="M20.2,21.7L20.2,21.7L20.2,21.7L20.2,21.7z"/>
		<path class="st0" d="M20.1,21.2L20.1,21.2L20.1,21.2c-0.2-0.2-0.3-0.4-0.5-0.6c-0.3-0.4-0.4-0.6-0.5-0.6c0,0.3,0.1,0.5,0.3,0.7
			c0,0.1,0.1,0.2,0.2,0.3v0l0.2,0.2l0.1,0.1c0,0,0.1,0.1,0.2,0.2c0,0-0.1-0.1-0.1-0.2c0.1,0.1,0.2,0.1,0.3,0.1
			c0.1,0.1,0.3,0.1,0.3,0s-0.1,0-0.2-0.1L20.1,21.2L20.1,21.2L20.1,21.2C20,21.1,20.1,21.2,20.1,21.2z"/>
		<path class="st0" d="M26.3,23.9L26.3,23.9v0.2l0,0c0.1,0,0.1,0.1,0.2,0c0.2,0,0.3-0.1,0.3-0.2s-0.1-0.2-0.3-0.2
			C26.4,23.8,26.3,23.8,26.3,23.9z"/>
		<path class="st0" d="M21,16.5c0,0,0.2,0,0.2-0.1c0,0,0-0.1,0-0.1c0-0.2,0-0.3-0.1-0.3s-0.1,0.1-0.1,0.1l0-0.3
			c-0.2-0.4-0.4-0.8-0.5-0.8s0,0.4,0.2,0.9c0,0.1,0.1,0.2,0.2,0.3C20.9,16.4,21,16.5,21,16.5z"/>
		<path class="st0" d="M21.2,11.2c0-0.1-0.3-0.4-0.7-0.9s-0.8-0.8-0.9-0.8s0.2,0.5,0.6,1S21.1,11.2,21.2,11.2z"/>
		<path class="st0" d="M22,11c0.5,0.5,1,1,1.5,1.5l0.1,0.3c0.3,0.7,0.8,1.4,1.2,2c0.5,0.7,1,1.3,1.3,1.8c0.2,0.3,0.3,0.6,0.5,0.9
			c0.1-0.3,0.1-0.7,0.1-1c0-0.9-0.3-1.7-0.9-2.4c-0.5-0.7-1.1-1.2-1.8-1.7c-0.5-0.4-0.9-0.6-0.9-0.6v0.1c-0.3-0.4-0.6-0.8-1-1.1
			c-0.6-0.6-1.4-1.1-2.2-1.4C20,9.4,20.9,10.1,22,11z"/>
		<path class="st0" d="M42.4,38.6c0,0,0-0.1-0.1-0.2c0.3,0.3,0.6,0.6,1,0.8c-0.4-0.6-0.8-1.1-1.3-1.6c-0.4-0.5-0.9-1.1-1.3-1.5
			c0,0,0,0,0,0.1l-0.3-0.5c-1.1-1.7-1.8-3.1-1.9-3.1c0.3,1.2,0.8,2.3,1.5,3.3C40.6,36.9,41.4,37.8,42.4,38.6z"/>
		<path class="st0" d="M43.1,38.4c0,0-0.1-0.2-0.3-0.4c0.4,0.5,0.7,0.8,0.8,0.7c-0.2-0.5-0.6-1-1-1.5c-0.3-0.4-0.6-0.7-1-1l-0.3-0.5
			c-0.6-1-1.2-1.9-1.9-2.7c0.4,1,1,2,1.7,2.9C41.6,36.8,42.3,37.7,43.1,38.4z"/>
		<path class="st0" d="M43.8,38.2c0,0-0.1-0.2-0.3-0.5c0.7,0.6,1.3,0.9,1.4,0.8s-0.5-0.5-1.2-1.2s-1.2-1.2-1.2-1.1l-0.5-0.7
			c-1.1-1.4-1.7-2.8-1.8-2.7c0.3,1.1,0.8,2.1,1.5,2.9C42.2,36.6,42.9,37.4,43.8,38.2z"/>
		<path class="st0" d="M43.1,35.7c0.3,0.6,0.7,1.1,1.2,1.5c0.7,0.8,1.4,1.4,1.4,1.3C45.4,38,45,37.4,44.5,37
			C44.1,36.5,43.6,36.1,43.1,35.7z"/>
		<path class="st0" d="M46.5,37.5c0.4,0.4,0.8,0.5,0.8,0.5s0-0.1-0.1-0.1s0.1,0,0.1,0c-0.3-0.5-0.7-0.9-1.1-1.3
			c-0.3-0.4-0.7-0.8-1.2-1.2c-0.5-0.8-1.1-1.5-1.7-2.1c0.5,0.9,1.1,1.8,1.7,2.6C45.4,36.4,45.9,37,46.5,37.5z"/>
		<path class="st0" d="M48,37.7c0,0,0-0.1-0.2-0.2l0,0c0-0.1-0.3-0.4-0.5-0.7s-0.6-0.7-0.7-0.7s0,0.1,0,0.2L46.3,36
			c-0.5-0.6-1-1.2-1.6-1.8c0.3,0.8,0.8,1.4,1.4,2C46.6,36.9,47.3,37.4,48,37.7z"/>
	</g>
</g>
</svg>
